<svg width="16" height="16" viewBox="0 0 16 16" fill="none" xmlns="http://www.w3.org/2000/svg">
<g id="Frame">
<path d="M0 0H16V16H0V0Z" stroke="#E5E7EB"/>
<path id="Vector" d="M5.75 1.5H10.25C10.3875 1.5 10.5 1.6125 10.5 1.75V3H5.5V1.75C5.5 1.6125 5.6125 1.5 5.75 1.5ZM4 1.75V3H2C0.896875 3 0 3.89687 0 5V13C0 14.1031 0.896875 15 2 15H14C15.1031 15 16 14.1031 16 13V5C16 3.89687 15.1031 3 14 3H12V1.75C12 0.784375 11.2156 0 10.25 0H5.75C4.78438 0 4 0.784375 4 1.75ZM7 6.5C7 6.225 7.225 6 7.5 6H8.5C8.775 6 9 6.225 9 6.5V8H10.5C10.775 8 11 8.225 11 8.5V9.5C11 9.775 10.775 10 10.5 10H9V11.5C9 11.775 8.775 12 8.5 12H7.5C7.225 12 7 11.775 7 11.5V10H5.5C5.225 10 5 9.775 5 9.5V8.5C5 8.225 5.225 8 5.5 8H7V6.5Z" fill="#3674B5"/>
</g>
</svg>
