<svg width="14" height="16" viewBox="0 0 14 16" fill="none" xmlns="http://www.w3.org/2000/svg">
<g id="Frame">
<g clip-path="url(#clip0_1_5815)">
<path id="Vector" d="M6.9993 0C6.44618 0 5.9993 0.446875 5.9993 1V1.55938C3.73368 1.91875 1.9993 3.88125 1.9993 6.25V7.29375C1.9993 8.7125 1.51493 10.0906 0.630551 11.1969L0.164926 11.7812C-0.0163238 12.0063 -0.0506988 12.3156 0.0743012 12.575C0.199301 12.8344 0.461801 13 0.749301 13H13.2493C13.5368 13 13.7993 12.8344 13.9243 12.575C14.0493 12.3156 14.0149 12.0063 13.8337 11.7812L13.3681 11.2C12.4837 10.0906 11.9993 8.7125 11.9993 7.29375V6.25C11.9993 3.88125 10.2649 1.91875 7.9993 1.55938V1C7.9993 0.446875 7.55243 0 6.9993 0ZM6.9993 3H7.2493C9.04305 3 10.4993 4.45625 10.4993 6.25V7.29375C10.4993 8.79062 10.9337 10.25 11.7399 11.5H2.25868C3.06493 10.25 3.4993 8.79062 3.4993 7.29375V6.25C3.4993 4.45625 4.95555 3 6.7493 3H6.9993ZM8.9993 14H6.9993H4.9993C4.9993 14.5312 5.20868 15.0406 5.58368 15.4156C5.95868 15.7906 6.46805 16 6.9993 16C7.53055 16 8.03993 15.7906 8.41493 15.4156C8.78993 15.0406 8.9993 14.5312 8.9993 14Z" fill="black"/>
</g>
</g>
<defs>
<clipPath id="clip0_1_5815">
<path d="M0 0H14V16H0V0Z" fill="white"/>
</clipPath>
</defs>
</svg>
