<svg width="37" height="51" viewBox="0 0 37 51" fill="none" xmlns="http://www.w3.org/2000/svg">
<g id="logo1 1" clip-path="url(#clip0_1_10962)">
<g id="#2563ebff">
<path id="Vector" d="M4.95843 14.2741C8.09072 10.0294 14.8645 10.362 18.0208 14.433C20.1731 11.8564 23.6945 10.5209 26.9133 11.5238C29.6709 12.0996 31.6646 14.5075 32.7071 17.089C33.4133 19.055 33.1394 21.2146 32.7551 23.2253C29.9975 23.2054 27.24 23.2699 24.4824 23.1806C23.6032 21.8104 23.339 18.7472 21.1291 19.4969C19.7215 21.2543 18.7991 23.4785 18.0881 25.6381C17.2762 23.2501 16.1328 21.0011 15.2008 18.6628C14.9462 17.6252 13.5578 16.9054 12.794 17.8486C11.8427 19.477 11.2711 21.3089 10.5889 23.0714C8.182 23.404 5.75111 23.121 3.33463 23.265C2.42665 20.2167 2.82059 16.6869 4.95843 14.2741Z" fill="white"/>
<path id="Vector_2" d="M13.8026 22.4358C14.773 24.7691 15.7963 27.0777 16.7812 29.411C17.0742 29.5997 17.6555 29.972 17.9486 30.1557C18.5539 29.7983 19.3322 29.5699 19.5868 28.8153C20.3506 27.2514 21.2394 25.7422 21.8255 24.089C22.426 25.0521 23.2331 26.1493 24.463 26.1543C26.7449 26.2486 29.0317 26.2734 31.3089 26.0798C27.5088 29.7387 23.7039 33.4075 19.8991 37.0614C18.8998 38.0941 17.1655 38.1189 16.1614 37.0863C12.3854 33.3926 8.58533 29.7139 4.73242 26.1046C6.83663 26.2089 8.96486 26.3429 11.0643 26.0649C12.6448 25.5684 13.3895 23.95 13.8026 22.4358Z" fill="white"/>
</g>
</g>
<defs>
<clipPath id="clip0_1_10962">
<rect width="36.5114" height="51" fill="white"/>
</clipPath>
</defs>
</svg>
