<svg width="24" height="24" viewBox="0 0 24 24" fill="none" xmlns="http://www.w3.org/2000/svg">
<g id="Frame">
<path id="Vector" fill-rule="evenodd" clip-rule="evenodd" d="M6.27543 8.65219C6.44735 8.48679 6.67789 8.39641 6.9164 8.40091C7.15492 8.40541 7.38189 8.50442 7.54743 8.67619L11.9994 13.4018L16.4514 8.67619C16.5324 8.58697 16.6304 8.51491 16.7397 8.46427C16.8489 8.41363 16.9673 8.38544 17.0877 8.38137C17.208 8.37731 17.328 8.39744 17.4405 8.44059C17.5529 8.48374 17.6556 8.54902 17.7423 8.63257C17.8291 8.71612 17.8982 8.81623 17.9456 8.92698C17.9929 9.03772 18.0176 9.15685 18.018 9.2773C18.0185 9.39775 17.9948 9.51706 17.9483 9.62818C17.9018 9.7393 17.8335 9.83996 17.7474 9.92419L12.6474 15.3242C12.5635 15.4113 12.4628 15.4806 12.3515 15.5279C12.2401 15.5752 12.1204 15.5996 11.9994 15.5996C11.8785 15.5996 11.7587 15.5752 11.6474 15.5279C11.536 15.4806 11.4354 15.4113 11.3514 15.3242L6.25143 9.92419C6.08604 9.75228 5.99566 9.52173 6.00016 9.28322C6.00466 9.04471 6.10367 8.81774 6.27543 8.65219Z" fill="black"/>
</g>
</svg>
