<svg width="14" height="16" viewBox="0 0 14 16" fill="none" xmlns="http://www.w3.org/2000/svg">
<g id="Frame">
<g clip-path="url(#clip0_1_10943)">
<path id="Vector" d="M9.5 4C9.5 3.33696 9.23661 2.70107 8.76777 2.23223C8.29893 1.76339 7.66304 1.5 7 1.5C6.33696 1.5 5.70107 1.76339 5.23223 2.23223C4.76339 2.70107 4.5 3.33696 4.5 4C4.5 4.66304 4.76339 5.29893 5.23223 5.76777C5.70107 6.23661 6.33696 6.5 7 6.5C7.66304 6.5 8.29893 6.23661 8.76777 5.76777C9.23661 5.29893 9.5 4.66304 9.5 4ZM3 4C3 2.93913 3.42143 1.92172 4.17157 1.17157C4.92172 0.421427 5.93913 0 7 0C8.06087 0 9.07828 0.421427 9.82843 1.17157C10.5786 1.92172 11 2.93913 11 4C11 5.06087 10.5786 6.07828 9.82843 6.82843C9.07828 7.57857 8.06087 8 7 8C5.93913 8 4.92172 7.57857 4.17157 6.82843C3.42143 6.07828 3 5.06087 3 4ZM1.54062 14.5H12.4594C12.1813 12.5219 10.4813 11 8.42813 11H5.57188C3.51875 11 1.81875 12.5219 1.54062 14.5ZM0 15.0719C0 11.9937 2.49375 9.5 5.57188 9.5H8.42813C11.5063 9.5 14 11.9937 14 15.0719C14 15.5844 13.5844 16 13.0719 16H0.928125C0.415625 16 0 15.5844 0 15.0719Z" fill="white"/>
</g>
</g>
<defs>
<clipPath id="clip0_1_10943">
<path d="M0 0H14V16H0V0Z" fill="white"/>
</clipPath>
</defs>
</svg>
