<svg width="16" height="16" viewBox="0 0 16 16" fill="none" xmlns="http://www.w3.org/2000/svg">
<g id="Frame">
<g clip-path="url(#clip0_1_10954)">
<path id="Vector" d="M15.4977 5.20625C15.5977 5.47813 15.5133 5.78125 15.2977 5.975L13.9445 7.20625C13.9789 7.46563 13.9977 7.73125 13.9977 8C13.9977 8.26875 13.9789 8.53438 13.9445 8.79375L15.2977 10.025C15.5133 10.2188 15.5977 10.5219 15.4977 10.7937C15.3602 11.1656 15.1945 11.5219 15.0039 11.8656L14.857 12.1187C14.6508 12.4625 14.4195 12.7875 14.1664 13.0938C13.982 13.3188 13.6758 13.3937 13.4008 13.3062L11.6602 12.7531C11.2414 13.075 10.7789 13.3438 10.2852 13.5469L9.89454 15.3313C9.83204 15.6156 9.61329 15.8406 9.32579 15.8875C8.89454 15.9594 8.45079 15.9969 7.99766 15.9969C7.54454 15.9969 7.10079 15.9594 6.66954 15.8875C6.38204 15.8406 6.16329 15.6156 6.10079 15.3313L5.71016 13.5469C5.21641 13.3438 4.75391 13.075 4.33516 12.7531L2.59766 13.3094C2.32266 13.3969 2.01641 13.3188 1.83204 13.0969C1.57891 12.7906 1.34766 12.4656 1.14141 12.1219L0.994539 11.8687C0.803914 11.525 0.638289 11.1687 0.500789 10.7969C0.400789 10.525 0.485164 10.2219 0.700789 10.0281L2.05391 8.79688C2.01954 8.53438 2.00079 8.26875 2.00079 8C2.00079 7.73125 2.01954 7.46563 2.05391 7.20625L0.700789 5.975C0.485164 5.78125 0.400789 5.47813 0.500789 5.20625C0.638289 4.83438 0.803914 4.47813 0.994539 4.13438L1.14141 3.88125C1.34766 3.5375 1.57891 3.2125 1.83204 2.90625C2.01641 2.68125 2.32266 2.60625 2.59766 2.69375L4.33829 3.24688C4.75704 2.925 5.21954 2.65625 5.71329 2.45312L6.10391 0.66875C6.16641 0.384375 6.38516 0.159375 6.67266 0.1125C7.10391 0.0375 7.54766 0 8.00079 0C8.45391 0 8.89767 0.0375 9.32891 0.109375C9.61642 0.15625 9.83517 0.38125 9.89767 0.665625L10.2883 2.45C10.782 2.65313 11.2445 2.92188 11.6633 3.24375L13.4039 2.69062C13.6789 2.60312 13.9852 2.68125 14.1695 2.90313C14.4227 3.20938 14.6539 3.53437 14.8602 3.87812L15.007 4.13125C15.1977 4.475 15.3633 4.83125 15.5008 5.20312L15.4977 5.20625ZM8.00079 10.5C8.66383 10.5 9.29972 10.2366 9.76856 9.76777C10.2374 9.29893 10.5008 8.66304 10.5008 8C10.5008 7.33696 10.2374 6.70107 9.76856 6.23223C9.29972 5.76339 8.66383 5.5 8.00079 5.5C7.33775 5.5 6.70186 5.76339 6.23302 6.23223C5.76418 6.70107 5.50079 7.33696 5.50079 8C5.50079 8.66304 5.76418 9.29893 6.23302 9.76777C6.70186 10.2366 7.33775 10.5 8.00079 10.5Z" fill="white"/>
</g>
</g>
<defs>
<clipPath id="clip0_1_10954">
<path d="M0 0H16V16H0V0Z" fill="white"/>
</clipPath>
</defs>
</svg>
