<svg width="34" height="47" viewBox="0 0 34 47" fill="none" xmlns="http://www.w3.org/2000/svg">
<g id="logo1 1" clip-path="url(#clip0_1_10768)">
<g id="#2563ebff">
<path id="Vector" d="M4.49495 12.9411C7.33471 9.09283 13.4759 9.39439 16.3374 13.0852C18.2887 10.7492 21.4812 9.53842 24.3994 10.4476C26.8994 10.9697 28.707 13.1527 29.6521 15.4932C30.2923 17.2755 30.0441 19.2334 29.6957 21.0563C27.1956 21.0383 24.6956 21.0968 22.1955 21.0158C21.3985 19.7735 21.1589 16.9965 19.1554 17.6761C17.8793 19.2694 17.043 21.2858 16.3984 23.2438C15.6624 21.0788 14.6258 19.0399 13.7808 16.9199C13.55 15.9793 12.2912 15.3266 11.5987 16.1818C10.7363 17.6581 10.218 19.3189 9.59955 20.9168C7.41746 21.2183 5.2136 20.9618 3.0228 21.0923C2.19962 18.3287 2.55677 15.1286 4.49495 12.9411Z" fill="#3674B5"/>
<path id="Vector_2" d="M12.5135 20.3408C13.3933 22.4563 14.321 24.5492 15.2138 26.6646C15.4795 26.8357 16.0065 27.1732 16.2722 27.3398C16.821 27.0157 17.5266 26.8087 17.7574 26.1245C18.45 24.7067 19.2557 23.3384 19.7871 21.8396C20.3315 22.7128 21.0632 23.7075 22.1782 23.712C24.2471 23.7975 26.3203 23.82 28.3848 23.6445C24.9396 26.9617 21.4901 30.2879 18.0405 33.6006C17.1346 34.5368 15.5623 34.5593 14.652 33.6231C11.2286 30.2744 7.78343 26.9392 4.29034 23.667C6.19804 23.7615 8.12751 23.8831 10.0308 23.631C11.4638 23.1809 12.1389 21.7136 12.5135 20.3408Z" fill="#3674B5"/>
</g>
</g>
<defs>
<clipPath id="clip0_1_10768">
<rect width="33.1015" height="46.237" fill="white"/>
</clipPath>
</defs>
</svg>
