<svg width="17" height="16" viewBox="0 0 17 16" fill="none" xmlns="http://www.w3.org/2000/svg">
<g id="Frame">
<g clip-path="url(#clip0_1_8657)">
<path id="Vector" d="M6.12187 0.768966C5.88125 0.187716 5.24687 -0.121659 4.64062 0.0439663L1.89062 0.793966C1.34688 0.943966 0.96875 1.43772 0.96875 2.00022C0.96875 9.73147 7.2375 16.0002 14.9688 16.0002C15.5312 16.0002 16.025 15.6221 16.175 15.0783L16.925 12.3283C17.0906 11.7221 16.7812 11.0877 16.2 10.8471L13.2 9.59709C12.6906 9.38459 12.1 9.53147 11.7531 9.95959L10.4906 11.5002C8.29063 10.4596 6.50938 8.67834 5.46875 6.47834L7.00938 5.21897C7.4375 4.86897 7.58437 4.28147 7.37187 3.77209L6.12187 0.772091V0.768966Z" fill="#3674B5"/>
</g>
</g>
<defs>
<clipPath id="clip0_1_8657">
<path d="M0.96875 0H16.9688V16H0.96875V0Z" fill="white"/>
</clipPath>
</defs>
</svg>
