<svg width="21" height="20" viewBox="0 0 21 20" fill="none" xmlns="http://www.w3.org/2000/svg">
<g id="Frame">
<g clip-path="url(#clip0_1_10682)">
<path id="Vector" d="M10.8594 0C13.5115 0 16.0551 1.05357 17.9304 2.92893C19.8058 4.8043 20.8594 7.34784 20.8594 10C20.8594 12.6522 19.8058 15.1957 17.9304 17.0711C16.0551 18.9464 13.5115 20 10.8594 20C8.20721 20 5.66367 18.9464 3.78831 17.0711C1.91294 15.1957 0.859375 12.6522 0.859375 10C0.859375 7.34784 1.91294 4.8043 3.78831 2.92893C5.66367 1.05357 8.20721 0 10.8594 0ZM9.92188 4.6875V10C9.92188 10.3125 10.0781 10.6055 10.3398 10.7812L14.0898 13.2812C14.5195 13.5703 15.1016 13.4531 15.3906 13.0195C15.6797 12.5859 15.5625 12.0078 15.1289 11.7188L11.7969 9.5V4.6875C11.7969 4.16797 11.3789 3.75 10.8594 3.75C10.3398 3.75 9.92188 4.16797 9.92188 4.6875Z" fill="white"/>
</g>
</g>
<defs>
<clipPath id="clip0_1_10682">
<path d="M0.859375 0H20.8594V20H0.859375V0Z" fill="white"/>
</clipPath>
</defs>
</svg>
