<svg width="18" height="20" viewBox="0 0 18 20" fill="none" xmlns="http://www.w3.org/2000/svg">
<g id="Frame">
<g clip-path="url(#clip0_1_10673)">
<path id="Vector" d="M8.78125 10C10.1073 10 11.3791 9.47322 12.3168 8.53553C13.2545 7.59785 13.7812 6.32608 13.7812 5C13.7812 3.67392 13.2545 2.40215 12.3168 1.46447C11.3791 0.526784 10.1073 0 8.78125 0C7.45517 0 6.1834 0.526784 5.24572 1.46447C4.30803 2.40215 3.78125 3.67392 3.78125 5C3.78125 6.32608 4.30803 7.59785 5.24572 8.53553C6.1834 9.47322 7.45517 10 8.78125 10ZM5.03125 12.1562C2.14062 13.0039 0.03125 15.6758 0.03125 18.8398C0.03125 19.4805 0.550781 20 1.19141 20H16.3711C17.0117 20 17.5312 19.4805 17.5312 18.8398C17.5312 15.6758 15.4219 13.0039 12.5312 12.1562V14.1406C13.6094 14.418 14.4062 15.3984 14.4062 16.5625V18.125C14.4062 18.4688 14.125 18.75 13.7812 18.75H13.1562C12.8125 18.75 12.5312 18.4688 12.5312 18.125C12.5312 17.7812 12.8125 17.5 13.1562 17.5V16.5625C13.1562 15.8711 12.5977 15.3125 11.9062 15.3125C11.2148 15.3125 10.6562 15.8711 10.6562 16.5625V17.5C11 17.5 11.2812 17.7812 11.2812 18.125C11.2812 18.4688 11 18.75 10.6562 18.75H10.0312C9.6875 18.75 9.40625 18.4688 9.40625 18.125V16.5625C9.40625 15.3984 10.2031 14.418 11.2812 14.1406V11.9102C11.0469 11.8867 10.8086 11.875 10.5664 11.875H6.99609C6.75391 11.875 6.51562 11.8867 6.28125 11.9102V14.4648C7.18359 14.7344 7.84375 15.5703 7.84375 16.5625C7.84375 17.7695 6.86328 18.75 5.65625 18.75C4.44922 18.75 3.46875 17.7695 3.46875 16.5625C3.46875 15.5703 4.12891 14.7344 5.03125 14.4648V12.1562ZM5.65625 17.5C5.90489 17.5 6.14335 17.4012 6.31916 17.2254C6.49498 17.0496 6.59375 16.8111 6.59375 16.5625C6.59375 16.3139 6.49498 16.0754 6.31916 15.8996C6.14335 15.7238 5.90489 15.625 5.65625 15.625C5.40761 15.625 5.16915 15.7238 4.99334 15.8996C4.81752 16.0754 4.71875 16.3139 4.71875 16.5625C4.71875 16.8111 4.81752 17.0496 4.99334 17.2254C5.16915 17.4012 5.40761 17.5 5.65625 17.5Z" fill="white"/>
</g>
</g>
<defs>
<clipPath id="clip0_1_10673">
<path d="M0.03125 0H17.5312V20H0.03125V0Z" fill="white"/>
</clipPath>
</defs>
</svg>
