<svg width="18" height="20" viewBox="0 0 18 20" fill="none" xmlns="http://www.w3.org/2000/svg">
<g id="Frame">
<g clip-path="url(#clip0_1_10836)">
<path id="Vector" d="M9.25391 5.50781C6.76953 5.50781 4.76562 7.51172 4.76562 9.99609C4.76562 12.4805 6.76953 14.4844 9.25391 14.4844C11.7383 14.4844 13.7422 12.4805 13.7422 9.99609C13.7422 7.51172 11.7383 5.50781 9.25391 5.50781ZM9.25391 12.9141C7.64844 12.9141 6.33594 11.6055 6.33594 9.99609C6.33594 8.38672 7.64453 7.07812 9.25391 7.07812C10.8633 7.07812 12.1719 8.38672 12.1719 9.99609C12.1719 11.6055 10.8594 12.9141 9.25391 12.9141ZM14.9727 5.32422C14.9727 5.90625 14.5039 6.37109 13.9258 6.37109C13.3438 6.37109 12.8789 5.90234 12.8789 5.32422C12.8789 4.74609 13.3477 4.27734 13.9258 4.27734C14.5039 4.27734 14.9727 4.74609 14.9727 5.32422ZM17.9453 6.38672C17.8789 4.98438 17.5586 3.74219 16.5312 2.71875C15.5078 1.69531 14.2656 1.375 12.8633 1.30469C11.418 1.22266 7.08594 1.22266 5.64062 1.30469C4.24219 1.37109 3 1.69141 1.97266 2.71484C0.945313 3.73828 0.628906 4.98047 0.558594 6.38281C0.476562 7.82812 0.476562 12.1602 0.558594 13.6055C0.625 15.0078 0.945313 16.25 1.97266 17.2734C3 18.2969 4.23828 18.6172 5.64062 18.6875C7.08594 18.7695 11.418 18.7695 12.8633 18.6875C14.2656 18.6211 15.5078 18.3008 16.5312 17.2734C17.5547 16.25 17.875 15.0078 17.9453 13.6055C18.0273 12.1602 18.0273 7.83203 17.9453 6.38672ZM16.0781 15.1562C15.7734 15.9219 15.1836 16.5117 14.4141 16.8203C13.2617 17.2773 10.5273 17.1719 9.25391 17.1719C7.98047 17.1719 5.24219 17.2734 4.09375 16.8203C3.32812 16.5156 2.73828 15.9258 2.42969 15.1562C1.97266 14.0039 2.07813 11.2695 2.07813 9.99609C2.07813 8.72266 1.97656 5.98438 2.42969 4.83594C2.73438 4.07031 3.32422 3.48047 4.09375 3.17187C5.24609 2.71484 7.98047 2.82031 9.25391 2.82031C10.5273 2.82031 13.2656 2.71875 14.4141 3.17187C15.1797 3.47656 15.7695 4.06641 16.0781 4.83594C16.5352 5.98828 16.4297 8.72266 16.4297 9.99609C16.4297 11.2695 16.5352 14.0078 16.0781 15.1562Z" fill="#9CA3AF"/>
</g>
</g>
<defs>
<clipPath id="clip0_1_10836">
<path d="M0.5 0H18V20H0.5V0Z" fill="white"/>
</clipPath>
</defs>
</svg>
