<svg width="16" height="20" viewBox="0 0 16 20" fill="none" xmlns="http://www.w3.org/2000/svg">
<g id="Frame">
<g clip-path="url(#clip0_1_9255)">
<path id="Vector" d="M8.92578 19.5C10.9297 16.9922 15.5 10.9141 15.5 7.5C15.5 3.35938 12.1406 0 8 0C3.85938 0 0.5 3.35938 0.5 7.5C0.5 10.9141 5.07031 16.9922 7.07422 19.5C7.55469 20.0977 8.44531 20.0977 8.92578 19.5ZM8 5C8.66304 5 9.29893 5.26339 9.76777 5.73223C10.2366 6.20107 10.5 6.83696 10.5 7.5C10.5 8.16304 10.2366 8.79893 9.76777 9.26777C9.29893 9.73661 8.66304 10 8 10C7.33696 10 6.70107 9.73661 6.23223 9.26777C5.76339 8.79893 5.5 8.16304 5.5 7.5C5.5 6.83696 5.76339 6.20107 6.23223 5.73223C6.70107 5.26339 7.33696 5 8 5Z" fill="#3674B5"/>
</g>
</g>
<defs>
<clipPath id="clip0_1_9255">
<path d="M0.5 0H15.5V20H0.5V0Z" fill="white"/>
</clipPath>
</defs>
</svg>
