<svg width="28" height="38" viewBox="0 0 28 38" fill="none" xmlns="http://www.w3.org/2000/svg">
<g id="logo1 1" clip-path="url(#clip0_1_10786)">
<g id="#2563ebff">
<path id="Vector" d="M3.68726 10.6154C6.01676 7.45856 11.0545 7.70594 13.4018 10.7335C15.0024 8.81728 17.6213 7.82409 20.0151 8.56991C22.066 8.9982 23.5487 10.7889 24.324 12.7088C24.8492 14.1709 24.6455 15.777 24.3597 17.2724C22.3089 17.2576 20.2581 17.3056 18.2073 17.2391C17.5535 16.2201 17.357 13.942 15.7134 14.4995C14.6666 15.8066 13.9806 17.4607 13.4518 19.0667C12.848 17.2908 11.9977 15.6183 11.3046 13.8792C11.1152 13.1076 10.0826 12.5722 9.51457 13.2737C8.80715 14.4848 8.38198 15.8472 7.87463 17.1579C6.08464 17.4053 4.27678 17.1948 2.47964 17.3019C1.80438 15.0349 2.09735 12.4098 3.68726 10.6154Z" fill="white"/>
<path id="Vector_2" d="M10.2649 16.6855C10.9867 18.4209 11.7477 20.1377 12.4801 21.873C12.6981 22.0133 13.1304 22.2903 13.3483 22.4269C13.7985 22.161 14.3773 21.9912 14.5666 21.43C15.1347 20.267 15.7957 19.1445 16.2316 17.915C16.6782 18.6313 17.2784 19.4473 18.1931 19.451C19.8902 19.5211 21.5909 19.5396 23.2844 19.3956C20.4583 22.1167 17.6286 24.8452 14.7989 27.5627C14.0557 28.3307 12.7659 28.3491 12.0192 27.5811C9.21096 24.8342 6.38484 22.0983 3.51942 19.4141C5.08433 19.4916 6.6671 19.5913 8.22843 19.3845C9.40389 19.0153 9.95768 17.8117 10.2649 16.6855Z" fill="white"/>
</g>
</g>
<defs>
<clipPath id="clip0_1_10786">
<rect width="27.1536" height="37.9288" fill="white"/>
</clipPath>
</defs>
</svg>
