<svg width="25" height="24" viewBox="0 0 25 24" fill="none" xmlns="http://www.w3.org/2000/svg">
<g id="Frame">
<path id="Vector" d="M12.9563 0.135938C12.7594 0.046875 12.5485 0 12.3281 0C12.1078 0 11.8969 0.046875 11.7 0.135938L2.87346 3.88125C1.84221 4.31719 1.07346 5.33438 1.07815 6.5625C1.10158 11.2125 3.01408 19.7203 11.0906 23.5875C11.8735 23.9625 12.7828 23.9625 13.5656 23.5875C21.6422 19.7203 23.5547 11.2125 23.5781 6.5625C23.5828 5.33438 22.8141 4.31719 21.7828 3.88125L12.9563 0.135938ZM7.07815 10.3734C7.07815 8.78906 8.36252 7.5 9.95158 7.5C10.711 7.5 11.4422 7.80469 11.9813 8.33906L12.3281 8.68594L12.675 8.33906C13.2141 7.8 13.9453 7.5 14.7047 7.5C16.2891 7.5 17.5781 8.78438 17.5781 10.3734C17.5781 11.1328 17.2735 11.8641 16.7391 12.4031L12.8625 16.2797C12.5719 16.5703 12.0938 16.5703 11.8031 16.2797L7.92658 12.4031C7.38752 11.8641 7.08752 11.1328 7.08752 10.3734H7.07815Z" fill="white"/>
</g>
</svg>
