<svg width="15" height="16" viewBox="0 0 15 16" fill="none" xmlns="http://www.w3.org/2000/svg">
<g id="Frame">
<g clip-path="url(#clip0_1_8652)">
<path id="Vector" d="M14.675 8.70615C15.0656 8.31553 15.0656 7.68115 14.675 7.29053L9.675 2.29053C9.28438 1.8999 8.65 1.8999 8.25938 2.29053C7.86875 2.68115 7.86875 3.31553 8.25938 3.70615L11.5562 6.9999H1.96875C1.41562 6.9999 0.96875 7.44678 0.96875 7.9999C0.96875 8.55303 1.41562 8.9999 1.96875 8.9999H11.5531L8.2625 12.2937C7.87187 12.6843 7.87187 13.3187 8.2625 13.7093C8.65312 14.0999 9.2875 14.0999 9.67813 13.7093L14.6781 8.70928L14.675 8.70615Z" fill="white"/>
</g>
</g>
<defs>
<clipPath id="clip0_1_8652">
<path d="M0.96875 0H14.9688V16H0.96875V0Z" fill="white"/>
</clipPath>
</defs>
</svg>
