<svg width="28" height="24" viewBox="0 0 28 24" fill="none" xmlns="http://www.w3.org/2000/svg">
<g id="Frame">
<g clip-path="url(#clip0_1_9099)">
<path id="Vector" d="M6.83125 1.02676C7.09375 1.81426 6.66719 2.66269 5.88437 2.92519L4.65625 3.33301V9.00019C4.65625 11.4846 6.67188 13.5002 9.15625 13.5002C11.6406 13.5002 13.6562 11.4846 13.6562 9.00019V3.33301L12.4328 2.92519C11.6453 2.66269 11.2234 1.81426 11.4859 1.02676C11.7484 0.239256 12.5969 -0.182619 13.3844 0.0798808L14.6078 0.487693C15.8312 0.895506 16.6562 2.03926 16.6562 3.33301V9.00019C16.6562 12.6189 14.0969 15.6377 10.6891 16.3455C10.9844 18.9658 13.2063 21.0002 15.9062 21.0002C18.8078 21.0002 21.1562 18.6518 21.1562 15.7502V12.4361C19.8297 11.8596 18.9062 10.5377 18.9062 9.00019C18.9062 6.92832 20.5844 5.25019 22.6562 5.25019C24.7281 5.25019 26.4062 6.92832 26.4062 9.00019C26.4062 10.5377 25.4828 11.8596 24.1562 12.4361V15.7502C24.1562 20.3064 20.4625 24.0002 15.9062 24.0002C11.5516 24.0002 7.98906 20.6299 7.67969 16.3549C4.24375 15.6658 1.65625 12.6377 1.65625 9.00019V3.33301C1.65625 2.04394 2.48125 0.895506 3.70938 0.487693L4.93281 0.0798808C5.72031 -0.182619 6.56875 0.243943 6.83125 1.02676ZM22.6562 10.5002C23.0541 10.5002 23.4356 10.3422 23.7169 10.0609C23.9982 9.77955 24.1562 9.39802 24.1562 9.00019C24.1562 8.60237 23.9982 8.22084 23.7169 7.93953C23.4356 7.65823 23.0541 7.50019 22.6562 7.50019C22.2584 7.50019 21.8769 7.65823 21.5956 7.93953C21.3143 8.22084 21.1562 8.60237 21.1562 9.00019C21.1562 9.39802 21.3143 9.77955 21.5956 10.0609C21.8769 10.3422 22.2584 10.5002 22.6562 10.5002Z" fill="white"/>
</g>
</g>
<defs>
<clipPath id="clip0_1_9099">
<path d="M0.15625 0H27.1562V24H0.15625V0Z" fill="white"/>
</clipPath>
</defs>
</svg>
