<svg width="16" height="16" viewBox="0 0 16 16" fill="none" xmlns="http://www.w3.org/2000/svg">
<g id="Frame">
<g clip-path="url(#clip0_1_10849)">
<path id="Vector" d="M15.5656 0.175119C15.8812 0.393869 16.0468 0.771994 15.9875 1.15012L13.9875 14.1501C13.9406 14.4532 13.7562 14.7189 13.4875 14.8689C13.2187 15.0189 12.8968 15.0376 12.6125 14.9189L8.87496 13.3657L6.73433 15.6814C6.45621 15.9845 6.01871 16.0845 5.63433 15.9345C5.24996 15.7845 4.99996 15.4126 4.99996 15.0001V12.3876C4.99996 12.2626 5.04683 12.1439 5.13121 12.0532L10.3687 6.33762C10.55 6.14074 10.5437 5.83762 10.3562 5.65012C10.1687 5.46262 9.86558 5.45012 9.66871 5.62824L3.31246 11.2751L0.553084 9.89387C0.221834 9.72824 0.00933428 9.39699 -4.07251e-05 9.02824C-0.00941573 8.65949 0.184334 8.31574 0.503084 8.13137L14.5031 0.131369C14.8375 -0.0592555 15.25 -0.0405055 15.5656 0.175119Z" fill="white"/>
</g>
</g>
<defs>
<clipPath id="clip0_1_10849">
<path d="M0 0H16V16H0V0Z" fill="white"/>
</clipPath>
</defs>
</svg>
