<svg width="21" height="20" viewBox="0 0 21 20" fill="none" xmlns="http://www.w3.org/2000/svg">
<g id="Frame">
<g clip-path="url(#clip0_1_9135)">
<path id="Vector" d="M18.4441 5.92613C18.4568 6.10379 18.4568 6.28148 18.4568 6.45914C18.4568 11.8779 14.3325 18.1216 6.79441 18.1216C4.47207 18.1216 2.31473 17.4489 0.5 16.2815C0.829961 16.3195 1.14719 16.3322 1.48984 16.3322C3.40605 16.3322 5.17004 15.685 6.57867 14.581C4.77664 14.5429 3.26648 13.3627 2.74617 11.7383C3 11.7764 3.25379 11.8018 3.52031 11.8018C3.88832 11.8018 4.25637 11.751 4.59898 11.6622C2.72082 11.2814 1.31215 9.63172 1.31215 7.63934V7.58859C1.85781 7.89316 2.49238 8.08352 3.16492 8.10887C2.06086 7.37281 1.33754 6.11648 1.33754 4.69516C1.33754 3.93375 1.54055 3.23578 1.8959 2.62664C3.91367 5.11395 6.94668 6.73828 10.3477 6.91598C10.2842 6.61141 10.2461 6.29418 10.2461 5.97691C10.2461 3.71801 12.0736 1.87793 14.3451 1.87793C15.5253 1.87793 16.5913 2.37285 17.34 3.17234C18.2664 2.99469 19.1547 2.65203 19.9416 2.1825C19.637 3.1343 18.9898 3.93379 18.1395 4.44137C18.9644 4.35258 19.7639 4.1241 20.4999 3.80687C19.9416 4.61902 19.2436 5.34234 18.4441 5.92613Z" fill="#9CA3AF"/>
</g>
</g>
<defs>
<clipPath id="clip0_1_9135">
<path d="M0.5 0H20.5V20H0.5V0Z" fill="white"/>
</clipPath>
</defs>
</svg>
