<svg width="22" height="24" viewBox="0 0 22 24" fill="none" xmlns="http://www.w3.org/2000/svg">
<g id="Frame">
<g clip-path="url(#clip0_1_9088)">
<path id="Vector" d="M6.5 0C7.32969 0 8 0.670312 8 1.5V3H14V1.5C14 0.670312 14.6703 0 15.5 0C16.3297 0 17 0.670312 17 1.5V3H19.25C20.4922 3 21.5 4.00781 21.5 5.25V7.5H0.5V5.25C0.5 4.00781 1.50781 3 2.75 3H5V1.5C5 0.670312 5.67031 0 6.5 0ZM0.5 9H21.5V21.75C21.5 22.9922 20.4922 24 19.25 24H2.75C1.50781 24 0.5 22.9922 0.5 21.75V9ZM15.9219 14.2969C16.3625 13.8562 16.3625 13.1438 15.9219 12.7078C15.4812 12.2719 14.7688 12.2672 14.3328 12.7078L9.87969 17.1609L7.67656 14.9578C7.23594 14.5172 6.52344 14.5172 6.0875 14.9578C5.65156 15.3984 5.64687 16.1109 6.0875 16.5469L9.0875 19.5469C9.52812 19.9875 10.2406 19.9875 10.6766 19.5469L15.9219 14.2969Z" fill="white"/>
</g>
</g>
<defs>
<clipPath id="clip0_1_9088">
<path d="M0.5 0H21.5V24H0.5V0Z" fill="white"/>
</clipPath>
</defs>
</svg>
