<svg width="16" height="18" viewBox="0 0 16 18" fill="none" xmlns="http://www.w3.org/2000/svg">
<g id="Frame">
<g clip-path="url(#clip0_1_5547)">
<path id="Vector" d="M8.12519 0C7.50292 0 7.00019 0.502734 7.00019 1.125V1.7543C4.45136 2.15859 2.50019 4.36641 2.50019 7.03125V8.20547C2.50019 9.80156 1.95527 11.352 0.960347 12.5965L0.436519 13.2539C0.232612 13.507 0.19394 13.8551 0.334565 14.1469C0.47519 14.4387 0.770503 14.625 1.09394 14.625H15.1564C15.4799 14.625 15.7752 14.4387 15.9158 14.1469C16.0564 13.8551 16.0178 13.507 15.8139 13.2539L15.29 12.6C14.2951 11.352 13.7502 9.80156 13.7502 8.20547V7.03125C13.7502 4.36641 11.799 2.15859 9.25019 1.7543V1.125C9.25019 0.502734 8.74746 0 8.12519 0ZM8.12519 3.375H8.40644C10.4244 3.375 12.0627 5.01328 12.0627 7.03125V8.20547C12.0627 9.88945 12.5514 11.5312 13.4584 12.9375H2.79199C3.69902 11.5312 4.18769 9.88945 4.18769 8.20547V7.03125C4.18769 5.01328 5.82597 3.375 7.84394 3.375H8.12519ZM10.3752 15.75H8.12519H5.87519C5.87519 16.3477 6.11074 16.9207 6.53261 17.3426C6.95449 17.7645 7.52753 18 8.12519 18C8.72285 18 9.29589 17.7645 9.71777 17.3426C10.1396 16.9207 10.3752 16.3477 10.3752 15.75Z" fill="black"/>
</g>
</g>
<defs>
<clipPath id="clip0_1_5547">
<path d="M0.25 0H16V18H0.25V0Z" fill="white"/>
</clipPath>
</defs>
</svg>
