<svg width="15" height="16" viewBox="0 0 15 16" fill="none" xmlns="http://www.w3.org/2000/svg">
<g id="Frame">
<g clip-path="url(#clip0_1_5133)">
<path id="Vector" d="M7.65625 8C8.71712 8 9.73453 7.57857 10.4847 6.82843C11.2348 6.07828 11.6562 5.06087 11.6562 4C11.6562 2.93913 11.2348 1.92172 10.4847 1.17157C9.73453 0.421427 8.71712 0 7.65625 0C6.59538 0 5.57797 0.421427 4.82782 1.17157C4.07768 1.92172 3.65625 2.93913 3.65625 4C3.65625 5.06087 4.07768 6.07828 4.82782 6.82843C5.57797 7.57857 6.59538 8 7.65625 8ZM4.65625 9.725C2.34375 10.4031 0.65625 12.5406 0.65625 15.0719C0.65625 15.5844 1.07188 16 1.58438 16H13.7281C14.2406 16 14.6562 15.5844 14.6562 15.0719C14.6562 12.5406 12.9688 10.4031 10.6562 9.725V11.3125C11.5188 11.5344 12.1562 12.3188 12.1562 13.25V14.5C12.1562 14.775 11.9312 15 11.6562 15H11.1562C10.8813 15 10.6562 14.775 10.6562 14.5C10.6562 14.225 10.8813 14 11.1562 14V13.25C11.1562 12.6969 10.7094 12.25 10.1562 12.25C9.60312 12.25 9.15625 12.6969 9.15625 13.25V14C9.43125 14 9.65625 14.225 9.65625 14.5C9.65625 14.775 9.43125 15 9.15625 15H8.65625C8.38125 15 8.15625 14.775 8.15625 14.5V13.25C8.15625 12.3188 8.79375 11.5344 9.65625 11.3125V9.52812C9.46875 9.50937 9.27813 9.5 9.08438 9.5H6.22813C6.03438 9.5 5.84375 9.50937 5.65625 9.52812V11.5719C6.37813 11.7875 6.90625 12.4563 6.90625 13.25C6.90625 14.2156 6.12187 15 5.15625 15C4.19062 15 3.40625 14.2156 3.40625 13.25C3.40625 12.4563 3.93438 11.7875 4.65625 11.5719V9.725ZM5.15625 14C5.35516 14 5.54593 13.921 5.68658 13.7803C5.82723 13.6397 5.90625 13.4489 5.90625 13.25C5.90625 13.0511 5.82723 12.8603 5.68658 12.7197C5.54593 12.579 5.35516 12.5 5.15625 12.5C4.95734 12.5 4.76657 12.579 4.62592 12.7197C4.48527 12.8603 4.40625 13.0511 4.40625 13.25C4.40625 13.4489 4.48527 13.6397 4.62592 13.7803C4.76657 13.921 4.95734 14 5.15625 14Z" fill="#059669"/>
</g>
</g>
<defs>
<clipPath id="clip0_1_5133">
<path d="M0.65625 0H14.6562V16H0.65625V0Z" fill="white"/>
</clipPath>
</defs>
</svg>
