<svg width="17" height="16" viewBox="0 0 17 16" fill="none" xmlns="http://www.w3.org/2000/svg">
<g id="Frame">
<g clip-path="url(#clip0_1_6232)">
<path id="Vector" d="M5.48125 0.768966C5.24062 0.187716 4.60625 -0.121659 4 0.0439663L1.25 0.793966C0.70625 0.943966 0.328125 1.43772 0.328125 2.00022C0.328125 9.73147 6.59688 16.0002 14.3281 16.0002C14.8906 16.0002 15.3844 15.6221 15.5344 15.0783L16.2844 12.3283C16.45 11.7221 16.1406 11.0877 15.5594 10.8471L12.5594 9.59709C12.05 9.38459 11.4594 9.53147 11.1125 9.95959L9.85 11.5002C7.65 10.4596 5.86875 8.67834 4.82812 6.47834L6.36875 5.21897C6.79688 4.86897 6.94375 4.28147 6.73125 3.77209L5.48125 0.772091V0.768966Z" fill="#3674B5"/>
</g>
</g>
<defs>
<clipPath id="clip0_1_6232">
<path d="M0.328125 0H16.3281V16H0.328125V0Z" fill="white"/>
</clipPath>
</defs>
</svg>
