<svg width="5" height="16" viewBox="0 0 5 16" fill="none" xmlns="http://www.w3.org/2000/svg">
<g id="Frame">
<g clip-path="url(#clip0_1_5182)">
<path id="Vector" d="M2.375 11.25C1.91087 11.25 1.46575 11.4344 1.13756 11.7626C0.809374 12.0908 0.625 12.5359 0.625 13C0.625 13.4641 0.809374 13.9092 1.13756 14.2374C1.46575 14.5656 1.91087 14.75 2.375 14.75C2.83913 14.75 3.28425 14.5656 3.61244 14.2374C3.94063 13.9092 4.125 13.4641 4.125 13C4.125 12.5359 3.94063 12.0908 3.61244 11.7626C3.28425 11.4344 2.83913 11.25 2.375 11.25ZM2.375 6.25C1.91087 6.25 1.46575 6.43437 1.13756 6.76256C0.809374 7.09075 0.625 7.53587 0.625 8C0.625 8.46413 0.809374 8.90925 1.13756 9.23744C1.46575 9.56563 1.91087 9.75 2.375 9.75C2.83913 9.75 3.28425 9.56563 3.61244 9.23744C3.94063 8.90925 4.125 8.46413 4.125 8C4.125 7.53587 3.94063 7.09075 3.61244 6.76256C3.28425 6.43437 2.83913 6.25 2.375 6.25ZM4.125 3C4.125 2.53587 3.94063 2.09075 3.61244 1.76256C3.28425 1.43437 2.83913 1.25 2.375 1.25C1.91087 1.25 1.46575 1.43437 1.13756 1.76256C0.809374 2.09075 0.625 2.53587 0.625 3C0.625 3.46413 0.809374 3.90925 1.13756 4.23744C1.46575 4.56563 1.91087 4.75 2.375 4.75C2.83913 4.75 3.28425 4.56563 3.61244 4.23744C3.94063 3.90925 4.125 3.46413 4.125 3Z" fill="black"/>
</g>
</g>
<defs>
<clipPath id="clip0_1_5182">
<path d="M0.375 0H4.375V16H0.375V0Z" fill="white"/>
</clipPath>
</defs>
</svg>
