<svg width="18" height="18" viewBox="0 0 18 18" fill="none" xmlns="http://www.w3.org/2000/svg">
<g id="Frame">
<g clip-path="url(#clip0_1_5701)">
<path id="Vector" d="M17.4341 5.85703C17.5466 6.16289 17.4517 6.50391 17.2091 6.72187L15.6869 8.10703C15.7255 8.39883 15.7466 8.69766 15.7466 9C15.7466 9.30234 15.7255 9.60117 15.6869 9.89297L17.2091 11.2781C17.4517 11.4961 17.5466 11.8371 17.4341 12.143C17.2795 12.5613 17.0931 12.9621 16.8787 13.3488L16.7134 13.6336C16.4814 14.0203 16.2212 14.3859 15.9365 14.7305C15.7291 14.9836 15.3845 15.068 15.0752 14.9695L13.117 14.3473C12.6459 14.7094 12.1255 15.0117 11.5701 15.2402L11.1306 17.2477C11.0603 17.5676 10.8142 17.8207 10.4908 17.8734C10.0056 17.9543 9.5064 17.9965 8.99664 17.9965C8.48687 17.9965 7.98766 17.9543 7.5025 17.8734C7.17906 17.8207 6.93297 17.5676 6.86266 17.2477L6.4232 15.2402C5.86773 15.0117 5.34742 14.7094 4.87633 14.3473L2.92164 14.973C2.61226 15.0715 2.26773 14.9836 2.06031 14.734C1.77555 14.3895 1.51539 14.0238 1.28336 13.6371L1.11812 13.3523C0.903671 12.9656 0.717343 12.5648 0.562656 12.1465C0.450156 11.8406 0.545077 11.4996 0.787656 11.2816L2.30992 9.89648C2.27125 9.60117 2.25016 9.30234 2.25016 9C2.25016 8.69766 2.27125 8.39883 2.30992 8.10703L0.787656 6.72187C0.545077 6.50391 0.450156 6.16289 0.562656 5.85703C0.717343 5.43867 0.903671 5.03789 1.11812 4.65117L1.28336 4.36641C1.51539 3.97969 1.77555 3.61406 2.06031 3.26953C2.26773 3.01641 2.61226 2.93203 2.92164 3.03047L4.87984 3.65273C5.35094 3.29063 5.87125 2.98828 6.42672 2.75977L6.86617 0.752344C6.93648 0.432422 7.18258 0.179297 7.50601 0.126562C7.99117 0.0421875 8.49039 0 9.00016 0C9.50992 0 10.0091 0.0421875 10.4943 0.123047C10.8177 0.175781 11.0638 0.428906 11.1341 0.748828L11.5736 2.75625C12.1291 2.98477 12.6494 3.28711 13.1205 3.64922L15.0787 3.02695C15.388 2.92852 15.7326 3.01641 15.94 3.26602C16.2248 3.61055 16.4849 3.97617 16.717 4.36289L16.8822 4.64766C17.0966 5.03437 17.283 5.43516 17.4377 5.85352L17.4341 5.85703ZM9.00016 11.8125C9.74608 11.8125 10.4614 11.5162 10.9889 10.9887C11.5163 10.4613 11.8127 9.74592 11.8127 9C11.8127 8.25408 11.5163 7.53871 10.9889 7.01126C10.4614 6.48382 9.74608 6.1875 9.00016 6.1875C8.25423 6.1875 7.53886 6.48382 7.01142 7.01126C6.48397 7.53871 6.18766 8.25408 6.18766 9C6.18766 9.74592 6.48397 10.4613 7.01142 10.9887C7.53886 11.5162 8.25423 11.8125 9.00016 11.8125Z" fill="white"/>
</g>
</g>
<defs>
<clipPath id="clip0_1_5701">
<path d="M0 0H18V18H0V0Z" fill="white"/>
</clipPath>
</defs>
</svg>
