<svg width="17" height="14" viewBox="0 0 17 14" fill="none" xmlns="http://www.w3.org/2000/svg">
<g id="Frame">
<g clip-path="url(#clip0_1_6313)">
<path id="Vector" d="M9.32147 0.492188C9.17654 0.191406 8.87029 0 8.53397 0C8.19764 0 7.89412 0.191406 7.74646 0.492188L5.98826 4.10977L2.0617 4.68945C1.73357 4.73867 1.46014 4.96836 1.35897 5.28281C1.25779 5.59727 1.33982 5.94453 1.57498 6.17695L4.4242 8.99609L3.75154 12.9801C3.69686 13.3082 3.83357 13.6418 4.10428 13.8359C4.37498 14.0301 4.73318 14.0547 5.0285 13.8988L8.5367 12.0258L12.0449 13.8988C12.3402 14.0547 12.6984 14.0328 12.9691 13.8359C13.2398 13.6391 13.3765 13.3082 13.3219 12.9801L12.6465 8.99609L15.4957 6.17695C15.7308 5.94453 15.8156 5.59727 15.7117 5.28281C15.6078 4.96836 15.3371 4.73867 15.009 4.68945L11.0797 4.10977L9.32147 0.492188Z" fill="#3674B5"/>
</g>
</g>
<defs>
<clipPath id="clip0_1_6313">
<path d="M0.65625 0H16.4062V14H0.65625V0Z" fill="white"/>
</clipPath>
</defs>
</svg>
