<svg width="17" height="16" viewBox="0 0 17 16" fill="none" xmlns="http://www.w3.org/2000/svg">
<g id="Frame">
<g clip-path="url(#clip0_1_4935)">
<path id="Vector" d="M15.3125 8C15.3125 9.72391 14.6277 11.3772 13.4087 12.5962C12.1897 13.8152 10.5364 14.5 8.8125 14.5C7.08859 14.5 5.43529 13.8152 4.21631 12.5962C2.99732 11.3772 2.3125 9.72391 2.3125 8C2.3125 6.27609 2.99732 4.62279 4.21631 3.40381C5.43529 2.18482 7.08859 1.5 8.8125 1.5C10.5364 1.5 12.1897 2.18482 13.4087 3.40381C14.6277 4.62279 15.3125 6.27609 15.3125 8ZM0.8125 8C0.8125 10.1217 1.65535 12.1566 3.15565 13.6569C4.65594 15.1571 6.69077 16 8.8125 16C10.9342 16 12.9691 15.1571 14.4694 13.6569C15.9696 12.1566 16.8125 10.1217 16.8125 8C16.8125 5.87827 15.9696 3.84344 14.4694 2.34315C12.9691 0.842855 10.9342 0 8.8125 0C6.69077 0 4.65594 0.842855 3.15565 2.34315C1.65535 3.84344 0.8125 5.87827 0.8125 8ZM8.0625 3.75V8C8.0625 8.25 8.1875 8.48438 8.39687 8.625L11.3969 10.625C11.7406 10.8562 12.2063 10.7625 12.4375 10.4156C12.6687 10.0687 12.575 9.60625 12.2281 9.375L9.5625 7.6V3.75C9.5625 3.33437 9.22812 3 8.8125 3C8.39687 3 8.0625 3.33437 8.0625 3.75Z" fill="black"/>
</g>
</g>
<defs>
<clipPath id="clip0_1_4935">
<path d="M0.8125 0H16.8125V16H0.8125V0Z" fill="white"/>
</clipPath>
</defs>
</svg>
