<svg width="17" height="16" viewBox="0 0 17 16" fill="none" xmlns="http://www.w3.org/2000/svg">
<g id="Frame">
<g clip-path="url(#clip0_1_5561)">
<path id="Vector" d="M0.902962 1.71563C1.10921 1.27813 1.54671 1 2.03109 1H15.5311C16.0155 1 16.453 1.27813 16.6592 1.71563C16.8655 2.15313 16.803 2.66875 16.4967 3.04375L10.7811 10.0281V14C10.7811 14.3781 10.5686 14.725 10.228 14.8938C9.88734 15.0625 9.48421 15.0281 9.18109 14.8L7.18109 13.3C6.92796 13.1125 6.78109 12.8156 6.78109 12.5V10.0281L1.06234 3.04063C0.759212 2.66875 0.693587 2.15 0.902962 1.71563Z" fill="black"/>
</g>
</g>
<defs>
<clipPath id="clip0_1_5561">
<path d="M0.78125 0H16.7812V16H0.78125V0Z" fill="white"/>
</clipPath>
</defs>
</svg>
