<svg width="5" height="16" viewBox="0 0 5 16" fill="none" xmlns="http://www.w3.org/2000/svg">
<g id="Frame">
<g clip-path="url(#clip0_1_5599)">
<path id="Vector" d="M2.32812 11.25C1.864 11.25 1.41888 11.4344 1.09069 11.7626C0.762499 12.0908 0.578125 12.5359 0.578125 13C0.578125 13.4641 0.762499 13.9092 1.09069 14.2374C1.41888 14.5656 1.864 14.75 2.32812 14.75C2.79225 14.75 3.23737 14.5656 3.56556 14.2374C3.89375 13.9092 4.07812 13.4641 4.07812 13C4.07812 12.5359 3.89375 12.0908 3.56556 11.7626C3.23737 11.4344 2.79225 11.25 2.32812 11.25ZM2.32812 6.25C1.864 6.25 1.41888 6.43437 1.09069 6.76256C0.762499 7.09075 0.578125 7.53587 0.578125 8C0.578125 8.46413 0.762499 8.90925 1.09069 9.23744C1.41888 9.56563 1.864 9.75 2.32812 9.75C2.79225 9.75 3.23737 9.56563 3.56556 9.23744C3.89375 8.90925 4.07812 8.46413 4.07812 8C4.07812 7.53587 3.89375 7.09075 3.56556 6.76256C3.23737 6.43437 2.79225 6.25 2.32812 6.25ZM4.07812 3C4.07812 2.53587 3.89375 2.09075 3.56556 1.76256C3.23737 1.43437 2.79225 1.25 2.32812 1.25C1.864 1.25 1.41888 1.43437 1.09069 1.76256C0.762499 2.09075 0.578125 2.53587 0.578125 3C0.578125 3.46413 0.762499 3.90925 1.09069 4.23744C1.41888 4.56563 1.864 4.75 2.32812 4.75C2.79225 4.75 3.23737 4.56563 3.56556 4.23744C3.89375 3.90925 4.07812 3.46413 4.07812 3Z" fill="black"/>
</g>
</g>
<defs>
<clipPath id="clip0_1_5599">
<path d="M0.328125 0H4.32812V16H0.328125V0Z" fill="white"/>
</clipPath>
</defs>
</svg>
