<svg width="18" height="20" viewBox="0 0 18 20" fill="none" xmlns="http://www.w3.org/2000/svg">
<g id="Frame">
<g clip-path="url(#clip0_1_5713)">
<path id="Vector" d="M9.24913 0C8.55772 0 7.99913 0.558594 7.99913 1.25V1.94922C5.1671 2.39844 2.99913 4.85156 2.99913 7.8125V9.11719C2.99913 10.8906 2.39366 12.6133 1.28819 13.9961L0.706158 14.7266C0.479595 15.0078 0.436627 15.3945 0.592877 15.7188C0.749127 16.043 1.07725 16.25 1.43663 16.25H17.0616C17.421 16.25 17.7491 16.043 17.9054 15.7188C18.0616 15.3945 18.0187 15.0078 17.7921 14.7266L17.2101 14C16.1046 12.6133 15.4991 10.8906 15.4991 9.11719V7.8125C15.4991 4.85156 13.3312 2.39844 10.4991 1.94922V1.25C10.4991 0.558594 9.94053 0 9.24913 0ZM9.24913 3.75H9.56163C11.8038 3.75 13.6241 5.57031 13.6241 7.8125V9.11719C13.6241 10.9883 14.1671 12.8125 15.1749 14.375H3.32335C4.33116 12.8125 4.87413 10.9883 4.87413 9.11719V7.8125C4.87413 5.57031 6.69444 3.75 8.93663 3.75H9.24913ZM11.7491 17.5H9.24913H6.74913C6.74913 18.1641 7.01085 18.8008 7.4796 19.2695C7.94835 19.7383 8.58506 20 9.24913 20C9.91319 20 10.5499 19.7383 11.0187 19.2695C11.4874 18.8008 11.7491 18.1641 11.7491 17.5Z" fill="black"/>
</g>
</g>
<defs>
<clipPath id="clip0_1_5713">
<path d="M0.5 0H18V20H0.5V0Z" fill="white"/>
</clipPath>
</defs>
</svg>
