<svg width="18" height="16" viewBox="0 0 18 16" fill="none" xmlns="http://www.w3.org/2000/svg">
<g id="Frame">
<g clip-path="url(#clip0_1_5322)">
<path id="Vector" d="M9.0002 2.5C6.9627 2.5 5.2877 3.425 4.00332 4.61562C2.8002 5.73438 1.96895 7.0625 1.54395 8C1.96895 8.9375 2.8002 10.2656 4.0002 11.3844C5.2877 12.575 6.9627 13.5 9.0002 13.5C11.0377 13.5 12.7127 12.575 13.9971 11.3844C15.2002 10.2656 16.0314 8.9375 16.4564 8C16.0314 7.0625 15.2002 5.73438 14.0002 4.61562C12.7127 3.425 11.0377 2.5 9.0002 2.5ZM2.98145 3.51875C4.45332 2.15 6.4752 1 9.0002 1C11.5252 1 13.5471 2.15 15.0189 3.51875C16.4814 4.87812 17.4596 6.5 17.9252 7.61562C18.0283 7.8625 18.0283 8.1375 17.9252 8.38437C17.4596 9.5 16.4814 11.125 15.0189 12.4812C13.5471 13.85 11.5252 15 9.0002 15C6.4752 15 4.45332 13.85 2.98145 12.4812C1.51895 11.125 0.54082 9.5 0.0783203 8.38437C-0.0248047 8.1375 -0.0248047 7.8625 0.0783203 7.61562C0.54082 6.5 1.51895 4.875 2.98145 3.51875ZM9.0002 10.5C10.3814 10.5 11.5002 9.38125 11.5002 8C11.5002 6.61875 10.3814 5.5 9.0002 5.5C8.97832 5.5 8.95957 5.5 8.9377 5.5C8.97832 5.65938 9.0002 5.82812 9.0002 6C9.0002 7.10313 8.10332 8 7.0002 8C6.82832 8 6.65957 7.97813 6.5002 7.9375C6.5002 7.95937 6.5002 7.97813 6.5002 8C6.5002 9.38125 7.61895 10.5 9.0002 10.5ZM9.0002 4C10.0611 4 11.0785 4.42143 11.8286 5.17157C12.5788 5.92172 13.0002 6.93913 13.0002 8C13.0002 9.06087 12.5788 10.0783 11.8286 10.8284C11.0785 11.5786 10.0611 12 9.0002 12C7.93933 12 6.92191 11.5786 6.17177 10.8284C5.42162 10.0783 5.0002 9.06087 5.0002 8C5.0002 6.93913 5.42162 5.92172 6.17177 5.17157C6.92191 4.42143 7.93933 4 9.0002 4Z" fill="black"/>
</g>
</g>
<defs>
<clipPath id="clip0_1_5322">
<path d="M0 0H18V16H0V0Z" fill="white"/>
</clipPath>
</defs>
</svg>
