<svg width="18" height="20" viewBox="0 0 18 20" fill="none" xmlns="http://www.w3.org/2000/svg">
<g id="Frame">
<g clip-path="url(#clip0_1_5349)">
<path id="Vector" d="M9.2501 0C8.5587 0 8.0001 0.558594 8.0001 1.25V1.94922C5.16807 2.39844 3.0001 4.85156 3.0001 7.8125V9.11719C3.0001 10.8906 2.39463 12.6133 1.28917 13.9961L0.707134 14.7266C0.480572 15.0078 0.437603 15.3945 0.593853 15.7188C0.750103 16.043 1.07823 16.25 1.4376 16.25H17.0626C17.422 16.25 17.7501 16.043 17.9064 15.7188C18.0626 15.3945 18.0196 15.0078 17.7931 14.7266L17.211 14C16.1056 12.6133 15.5001 10.8906 15.5001 9.11719V7.8125C15.5001 4.85156 13.3321 2.39844 10.5001 1.94922V1.25C10.5001 0.558594 9.94151 0 9.2501 0ZM9.2501 3.75H9.5626C11.8048 3.75 13.6251 5.57031 13.6251 7.8125V9.11719C13.6251 10.9883 14.1681 12.8125 15.1759 14.375H3.32432C4.33213 12.8125 4.8751 10.9883 4.8751 9.11719V7.8125C4.8751 5.57031 6.69542 3.75 8.9376 3.75H9.2501ZM11.7501 17.5H9.2501H6.7501C6.7501 18.1641 7.01182 18.8008 7.48057 19.2695C7.94932 19.7383 8.58604 20 9.2501 20C9.91417 20 10.5509 19.7383 11.0196 19.2695C11.4884 18.8008 11.7501 18.1641 11.7501 17.5Z" fill="black"/>
</g>
</g>
<defs>
<clipPath id="clip0_1_5349">
<path d="M0.5 0H18V20H0.5V0Z" fill="white"/>
</clipPath>
</defs>
</svg>
