<svg width="17" height="16" viewBox="0 0 17 16" fill="none" xmlns="http://www.w3.org/2000/svg">
<g id="Frame">
<g clip-path="url(#clip0_1_5363)">
<path id="Vector" d="M1.01234 1.71563C1.21859 1.27813 1.65609 1 2.14046 1H15.6405C16.1248 1 16.5623 1.27813 16.7686 1.71563C16.9748 2.15313 16.9123 2.66875 16.6061 3.04375L10.8905 10.0281V14C10.8905 14.3781 10.678 14.725 10.3373 14.8938C9.99671 15.0625 9.59359 15.0281 9.29046 14.8L7.29046 13.3C7.03734 13.1125 6.89046 12.8156 6.89046 12.5V10.0281L1.17171 3.04063C0.868587 2.66875 0.802962 2.15 1.01234 1.71563Z" fill="black"/>
</g>
</g>
<defs>
<clipPath id="clip0_1_5363">
<path d="M0.890625 0H16.8906V16H0.890625V0Z" fill="white"/>
</clipPath>
</defs>
</svg>
