<svg width="13" height="16" viewBox="0 0 13 16" fill="none" xmlns="http://www.w3.org/2000/svg">
<g id="Frame">
<path id="Vector" d="M11.3941 4.70615C11.7848 4.31553 11.7848 3.68115 11.3941 3.29053C11.0035 2.8999 10.3691 2.8999 9.97852 3.29053L6.68789 6.58428L3.39414 3.29365C3.00352 2.90303 2.36914 2.90303 1.97852 3.29365C1.58789 3.68428 1.58789 4.31865 1.97852 4.70928L5.27227 7.9999L1.98164 11.2937C1.59102 11.6843 1.59102 12.3187 1.98164 12.7093C2.37227 13.0999 3.00664 13.0999 3.39727 12.7093L6.68789 9.41553L9.98164 12.7062C10.3723 13.0968 11.0066 13.0968 11.3973 12.7062C11.7879 12.3155 11.7879 11.6812 11.3973 11.2905L8.10352 7.9999L11.3941 4.70615Z" fill="white"/>
</g>
</svg>
