<svg width="18" height="20" viewBox="0 0 18 20" fill="none" xmlns="http://www.w3.org/2000/svg">
<g id="Frame">
<g clip-path="url(#clip0_1_5980)">
<path id="Vector" d="M5.9375 0.9375C5.9375 0.417969 5.51953 0 5 0C4.48047 0 4.0625 0.417969 4.0625 0.9375V2.5H2.5C1.12109 2.5 0 3.62109 0 5V5.625V7.5V17.5C0 18.8789 1.12109 20 2.5 20H15C16.3789 20 17.5 18.8789 17.5 17.5V7.5V5.625V5C17.5 3.62109 16.3789 2.5 15 2.5H13.4375V0.9375C13.4375 0.417969 13.0195 0 12.5 0C11.9805 0 11.5625 0.417969 11.5625 0.9375V2.5H5.9375V0.9375ZM1.875 7.5H15.625V17.5C15.625 17.8438 15.3438 18.125 15 18.125H2.5C2.15625 18.125 1.875 17.8438 1.875 17.5V7.5Z" fill="black"/>
</g>
</g>
<defs>
<clipPath id="clip0_1_5980">
<path d="M0 0H17.5V20H0V0Z" fill="white"/>
</clipPath>
</defs>
</svg>
