<svg width="20" height="20" viewBox="0 0 20 20" fill="none" xmlns="http://www.w3.org/2000/svg">
<g id="Frame">
<g clip-path="url(#clip0_1_6000)">
<path id="Vector" d="M6.25 14.375C7.28516 14.375 8.125 15.2148 8.125 16.25V16.875L10.957 14.75C11.2812 14.5078 11.6758 14.375 12.082 14.375H17.5C17.8438 14.375 18.125 14.0938 18.125 13.75V2.5C18.125 2.15625 17.8438 1.875 17.5 1.875H2.5C2.15625 1.875 1.875 2.15625 1.875 2.5V13.75C1.875 14.0938 2.15625 14.375 2.5 14.375H6.25ZM8.125 19.2188L8.11719 19.2266L7.91797 19.375L7.25 19.875C7.0625 20.0156 6.80859 20.0391 6.59375 19.9336C6.37891 19.8281 6.25 19.6133 6.25 19.375V18.543V18.293V18.2812V18.125V16.25H4.375H2.5C1.12109 16.25 0 15.1289 0 13.75V2.5C0 1.12109 1.12109 0 2.5 0H17.5C18.8789 0 20 1.12109 20 2.5V13.75C20 15.1289 18.8789 16.25 17.5 16.25H12.082L8.125 19.2188Z" fill="black"/>
</g>
</g>
<defs>
<clipPath id="clip0_1_6000">
<path d="M0 0H20V20H0V0Z" fill="white"/>
</clipPath>
</defs>
</svg>
