<svg width="20" height="20" viewBox="0 0 20 20" fill="none" xmlns="http://www.w3.org/2000/svg">
<g id="Frame">
<path id="Vector" d="M6.25 0C6.76953 0 7.1875 0.417969 7.1875 0.9375V2.5H12.8125V0.9375C12.8125 0.417969 13.2305 0 13.75 0C14.2695 0 14.6875 0.417969 14.6875 0.9375V2.5H16.25C17.6289 2.5 18.75 3.62109 18.75 5V5.625V7.5V17.5C18.75 18.8789 17.6289 20 16.25 20H3.75C2.37109 20 1.25 18.8789 1.25 17.5V7.5V5.625V5C1.25 3.62109 2.37109 2.5 3.75 2.5H5.3125V0.9375C5.3125 0.417969 5.73047 0 6.25 0ZM16.875 7.5H3.125V17.5C3.125 17.8438 3.40625 18.125 3.75 18.125H16.25C16.5938 18.125 16.875 17.8438 16.875 17.5V7.5ZM13.1641 10.9766L11.3281 12.8125L13.1641 14.6484C13.5312 15.0156 13.5312 15.6094 13.1641 15.9727C12.7969 16.3359 12.2031 16.3398 11.8398 15.9727L10.0039 14.1367L8.16797 15.9727C7.80078 16.3398 7.20703 16.3398 6.84375 15.9727C6.48047 15.6055 6.47656 15.0117 6.84375 14.6484L8.67969 12.8125L6.84375 10.9766C6.47656 10.6094 6.47656 10.0156 6.84375 9.65234C7.21094 9.28906 7.80469 9.28516 8.16797 9.65234L10.0039 11.4883L11.8398 9.65234C12.207 9.28516 12.8008 9.28516 13.1641 9.65234C13.5273 10.0195 13.5312 10.6133 13.1641 10.9766Z" fill="black"/>
</g>
</svg>
