<svg width="15" height="16" viewBox="0 0 15 16" fill="none" xmlns="http://www.w3.org/2000/svg">
<g id="Frame">
<g clip-path="url(#clip0_1_5236)">
<path id="Vector" d="M7.4375 8C8.49837 8 9.51578 7.57857 10.2659 6.82843C11.0161 6.07828 11.4375 5.06087 11.4375 4C11.4375 2.93913 11.0161 1.92172 10.2659 1.17157C9.51578 0.421427 8.49837 0 7.4375 0C6.37663 0 5.35922 0.421427 4.60907 1.17157C3.85893 1.92172 3.4375 2.93913 3.4375 4C3.4375 5.06087 3.85893 6.07828 4.60907 6.82843C5.35922 7.57857 6.37663 8 7.4375 8ZM4.4375 9.725C2.125 10.4031 0.4375 12.5406 0.4375 15.0719C0.4375 15.5844 0.853125 16 1.36563 16H13.5094C14.0219 16 14.4375 15.5844 14.4375 15.0719C14.4375 12.5406 12.75 10.4031 10.4375 9.725V11.3125C11.3 11.5344 11.9375 12.3188 11.9375 13.25V14.5C11.9375 14.775 11.7125 15 11.4375 15H10.9375C10.6625 15 10.4375 14.775 10.4375 14.5C10.4375 14.225 10.6625 14 10.9375 14V13.25C10.9375 12.6969 10.4906 12.25 9.9375 12.25C9.38437 12.25 8.9375 12.6969 8.9375 13.25V14C9.2125 14 9.4375 14.225 9.4375 14.5C9.4375 14.775 9.2125 15 8.9375 15H8.4375C8.1625 15 7.9375 14.775 7.9375 14.5V13.25C7.9375 12.3188 8.575 11.5344 9.4375 11.3125V9.52812C9.25 9.50937 9.05938 9.5 8.86563 9.5H6.00938C5.81563 9.5 5.625 9.50937 5.4375 9.52812V11.5719C6.15938 11.7875 6.6875 12.4563 6.6875 13.25C6.6875 14.2156 5.90312 15 4.9375 15C3.97187 15 3.1875 14.2156 3.1875 13.25C3.1875 12.4563 3.71563 11.7875 4.4375 11.5719V9.725ZM4.9375 14C5.13641 14 5.32718 13.921 5.46783 13.7803C5.60848 13.6397 5.6875 13.4489 5.6875 13.25C5.6875 13.0511 5.60848 12.8603 5.46783 12.7197C5.32718 12.579 5.13641 12.5 4.9375 12.5C4.73859 12.5 4.54782 12.579 4.40717 12.7197C4.26652 12.8603 4.1875 13.0511 4.1875 13.25C4.1875 13.4489 4.26652 13.6397 4.40717 13.7803C4.54782 13.921 4.73859 14 4.9375 14Z" fill="white"/>
</g>
</g>
<defs>
<clipPath id="clip0_1_5236">
<path d="M0.4375 0H14.4375V16H0.4375V0Z" fill="white"/>
</clipPath>
</defs>
</svg>
