<?xml version="1.0" encoding="UTF-8" ?>
<!DOCTYPE svg PUBLIC "-//W3C//DTD SVG 1.1//EN" "http://www.w3.org/Graphics/SVG/1.1/DTD/svg11.dtd">
<svg width="237pt" height="160pt" viewBox="0 0 237 160" version="1.1" xmlns="http://www.w3.org/2000/svg">
<g id="#f9f9f9ff">
</g>
<g id="#010101ff">
<path fill="#010101" opacity="1.00" d=" M 172.46 27.54 C 174.46 27.04 176.86 27.11 178.46 28.56 C 181.12 30.49 181.44 34.85 179.21 37.21 C 175.85 41.18 171.61 44.32 168.33 48.35 C 167.70 49.52 169.42 50.19 169.98 50.98 C 177.68 57.58 183.57 66.08 187.66 75.32 C 189.83 80.81 189.75 87.09 187.58 92.58 C 181.72 105.73 171.90 117.19 159.40 124.43 C 139.88 136.33 114.32 137.50 93.88 127.24 C 92.63 126.83 90.95 125.43 89.79 126.73 C 85.52 130.80 81.54 135.18 77.21 139.19 C 73.78 142.27 67.55 139.63 67.39 135.01 C 66.75 131.22 70.25 128.92 72.51 126.51 C 104.70 94.37 136.85 62.19 169.02 30.02 C 170.08 29.10 171.05 27.90 172.46 27.54 M 155.74 60.74 C 152.59 64.24 148.42 67.13 146.09 71.20 C 148.96 77.16 149.44 83.88 148.32 90.35 C 145.89 99.28 138.26 106.61 129.12 108.37 C 122.97 109.87 116.43 108.35 110.98 105.32 C 107.54 109.21 103.80 112.81 99.95 116.28 C 110.10 121.88 122.11 122.54 133.40 121.19 C 150.90 118.13 166.77 106.64 174.76 90.72 C 176.97 87.30 177.60 82.78 175.80 79.05 C 172.13 71.30 167.00 64.11 160.24 58.76 C 158.47 57.11 156.98 59.74 155.74 60.74 M 127.27 89.27 C 125.10 91.65 122.21 93.51 120.87 96.54 C 126.30 97.21 132.40 95.21 135.09 90.15 C 137.04 87.39 136.73 83.92 136.64 80.73 C 132.86 82.78 130.34 86.37 127.27 89.27 Z" />
<path fill="#010101" opacity="1.00" d=" M 113.34 34.20 C 121.75 33.04 130.49 33.03 138.76 35.09 C 144.33 36.90 143.74 46.19 137.76 46.92 C 131.85 46.68 125.96 45.00 120.00 45.84 C 102.33 47.15 85.42 56.98 76.05 72.09 C 73.55 76.28 70.31 80.75 71.32 85.93 C 72.67 91.58 76.82 95.97 79.45 101.02 C 80.69 105.08 77.21 109.34 73.01 108.93 C 68.29 108.29 66.53 103.21 64.14 99.77 C 59.80 93.07 57.10 84.68 59.82 76.82 C 68.43 54.42 89.72 37.87 113.34 34.20 Z" />
</g>
</svg>
