<?xml version="1.0" encoding="UTF-8" ?>
<!DOCTYPE svg PUBLIC "-//W3C//DTD SVG 1.1//EN" "http://www.w3.org/Graphics/SVG/1.1/DTD/svg11.dtd">
<svg width="220pt" height="130pt" viewBox="0 0 220 130" version="1.1" xmlns="http://www.w3.org/2000/svg">
<g id="#f9f9f9ff">
</g>
<g id="#010101ff">
<path fill="#010101" opacity="1.00" d=" M 109.32 16.17 C 135.84 12.18 163.99 25.31 177.84 48.28 C 182.47 55.26 186.15 63.90 183.35 72.31 C 177.52 87.99 165.38 101.12 150.45 108.61 C 130.02 119.34 104.09 118.59 84.26 106.81 C 73.86 100.90 65.08 92.15 59.12 81.78 C 56.05 76.71 53.45 71.05 53.72 64.98 C 53.97 58.08 57.75 52.07 61.33 46.41 C 72.06 30.06 90.02 18.98 109.32 16.17 M 109.41 28.67 C 91.86 31.57 76.14 43.20 68.15 59.08 C 66.27 62.17 65.59 66.01 66.68 69.49 C 73.87 86.14 89.35 98.90 107.09 102.69 C 119.69 105.03 133.29 103.92 144.68 97.70 C 156.51 91.80 166.04 81.59 171.31 69.48 C 172.20 66.51 172.02 63.12 170.50 60.38 C 166.74 52.96 161.76 45.98 155.13 40.88 C 142.69 30.28 125.44 26.01 109.41 28.67 Z" />
<path fill="#010101" opacity="1.00" d=" M 116.29 40.94 C 128.47 39.21 140.74 48.12 143.47 59.98 C 143.92 63.63 143.89 67.34 143.59 71.00 C 141.52 81.98 131.15 90.73 119.98 90.90 C 107.79 91.73 96.05 82.22 94.24 70.16 C 91.37 56.49 102.34 41.97 116.29 40.94 M 115.40 53.54 C 110.13 55.07 105.91 60.42 106.30 66.01 C 105.89 71.97 110.91 77.10 116.44 78.45 C 124.22 80.21 132.70 73.11 131.73 65.04 C 131.56 57.07 122.95 51.28 115.40 53.54 Z" />
</g>
</svg>
