<svg width="46" height="46" viewBox="0 0 46 46" fill="none" xmlns="http://www.w3.org/2000/svg">
<g id="Frame">
<g clip-path="url(#clip0_1_5287)">
<path id="Vector" d="M20.5654 41.7294L4.68359 26.9023C4.31445 26.5595 3.96289 26.1904 3.6377 25.8124H11.2842C13.2705 25.8124 15.0635 24.6171 15.8281 22.7802L16.751 20.5654L21.084 30.1894C21.418 30.9364 22.1475 31.4198 22.9648 31.4286C23.7822 31.4374 24.5293 30.9892 24.8984 30.2597L28.625 22.7978L28.7744 23.0966C29.6094 24.7665 31.3145 25.8212 33.1777 25.8212H42.3623C42.0371 26.1991 41.6855 26.5683 41.3164 26.9111L25.4346 41.7294C24.7754 42.3447 23.9053 42.6874 23 42.6874C22.0947 42.6874 21.2246 42.3447 20.5654 41.7294ZM44.7705 21.5937H33.1689C32.9053 21.5937 32.6592 21.4443 32.5361 21.207L30.4971 17.1376C30.1367 16.4257 29.4072 15.9687 28.6074 15.9687C27.8076 15.9687 27.0781 16.4169 26.7178 17.1376L23.0791 24.415L18.5967 14.4042C18.2539 13.6396 17.4805 13.1474 16.6455 13.165C15.8105 13.1825 15.0547 13.6835 14.7295 14.4657L11.9346 21.1718C11.8291 21.4355 11.5654 21.6025 11.2842 21.6025H1.90625C1.67773 21.6025 1.4668 21.6376 1.26465 21.6991C0.763672 20.2929 0.5 18.7987 0.5 17.2782V16.7685C0.5 10.6249 4.93848 5.38664 10.9941 4.3759C15.002 3.70793 19.0801 5.0175 21.9453 7.88273L23 8.93742L24.0547 7.88273C26.9199 5.0175 30.998 3.70793 35.0059 4.3759C41.0615 5.38664 45.5 10.6249 45.5 16.7685V17.2782C45.5 18.7636 45.2539 20.2226 44.7705 21.5937Z" fill="#3674B5"/>
</g>
</g>
<defs>
<clipPath id="clip0_1_5287">
<path d="M0.5 0.5H45.5V45.5H0.5V0.5Z" fill="white"/>
</clipPath>
</defs>
</svg>
