<svg width="15" height="16" viewBox="0 0 15 16" fill="none" xmlns="http://www.w3.org/2000/svg">
<g id="Frame">
<g clip-path="url(#clip0_1_5231)">
<path id="Vector" d="M7.59375 2.5H10.8031C10.5563 1.89062 10.1656 1.35938 9.67188 0.940625L7.59375 2.5ZM8.77188 0.36875C8.25938 0.13125 7.69375 0 7.09375 0C5.41563 0 3.97813 1.03437 3.38438 2.5H5.92812L8.77188 0.36875ZM7.09375 8C9.30313 8 11.0938 6.20937 11.0938 4C11.0938 3.83125 11.0844 3.6625 11.0625 3.5H3.125C3.10313 3.6625 3.09375 3.83125 3.09375 4C3.09375 6.20937 4.88438 8 7.09375 8ZM3.96875 9.7625C3.66563 9.85938 3.37188 9.98125 3.09375 10.1281V16H7.70937L5.76562 12.7563L3.96875 9.7625ZM5 9.5375L6.47813 12H8.59375C9.975 12 11.0938 13.1187 11.0938 14.5C11.0938 15.0625 10.9062 15.5813 10.5938 16H13.1656C13.6781 16 14.0938 15.5844 14.0938 15.0719C14.0938 11.9937 11.6 9.5 8.52188 9.5H5.66563C5.44063 9.5 5.21875 9.5125 5 9.54062V9.5375ZM0.09375 15.0719C0.09375 15.5844 0.509375 16 1.02188 16H2.09375V10.7937C0.871875 11.8156 0.09375 13.3531 0.09375 15.0719ZM10.0938 14.5C10.0938 13.6719 9.42188 13 8.59375 13H7.07812L8.8625 15.975C9.5625 15.85 10.0938 15.2375 10.0938 14.5Z" fill="white"/>
</g>
</g>
<defs>
<clipPath id="clip0_1_5231">
<path d="M0.09375 0H14.0938V16H0.09375V0Z" fill="white"/>
</clipPath>
</defs>
</svg>
