<svg width="15" height="16" viewBox="0 0 15 16" fill="none" xmlns="http://www.w3.org/2000/svg">
<g id="Frame">
<g clip-path="url(#clip0_1_5567)">
<path id="Vector" d="M8.39062 2.5C8.39062 1.94687 7.94375 1.5 7.39062 1.5C6.8375 1.5 6.39062 1.94687 6.39062 2.5V7H1.89062C1.3375 7 0.890625 7.44688 0.890625 8C0.890625 8.55312 1.3375 9 1.89062 9H6.39062V13.5C6.39062 14.0531 6.8375 14.5 7.39062 14.5C7.94375 14.5 8.39062 14.0531 8.39062 13.5V9H12.8906C13.4438 9 13.8906 8.55312 13.8906 8C13.8906 7.44688 13.4438 7 12.8906 7H8.39062V2.5Z" fill="white"/>
</g>
</g>
<defs>
<clipPath id="clip0_1_5567">
<path d="M0.390625 0H14.3906V16H0.390625V0Z" fill="white"/>
</clipPath>
</defs>
</svg>
