<?xml version="1.0" encoding="UTF-8" ?>
<!DOCTYPE svg PUBLIC "-//W3C//DTD SVG 1.1//EN" "http://www.w3.org/Graphics/SVG/1.1/DTD/svg11.dtd">
<svg width="612pt" height="459pt" viewBox="0 0 612 459" version="1.1" xmlns="http://www.w3.org/2000/svg">
<g id="#020e42ff">
<path fill="#020e42" opacity="1.00" d=" M 0.00 0.00 L 612.00 0.00 L 612.00 459.00 L 0.00 459.00 L 0.00 0.00 M 296.60 123.03 C 295.83 127.71 299.20 131.47 302.97 133.62 C 302.64 138.78 302.94 143.95 302.73 149.12 C 297.21 149.76 291.44 151.53 287.37 155.49 C 283.74 155.73 280.10 155.48 276.47 155.74 C 255.16 155.53 235.40 171.23 229.42 191.47 C 225.39 193.05 221.87 196.03 220.10 200.04 C 217.64 205.69 217.73 212.11 218.54 218.11 C 219.35 223.89 223.13 229.13 228.59 231.36 C 233.59 253.34 254.79 270.90 277.56 270.09 C 280.53 270.37 283.54 270.20 286.53 270.31 C 286.48 276.25 286.43 282.18 286.56 288.12 C 303.55 283.35 320.35 277.95 337.12 272.45 C 349.91 267.91 362.88 262.37 372.52 252.50 C 377.80 247.32 381.16 240.53 383.24 233.50 C 382.83 232.76 382.57 232.00 382.44 231.20 C 383.21 230.10 384.71 230.34 385.87 230.07 C 394.15 224.75 394.93 213.64 393.41 204.84 C 392.57 198.79 388.25 193.60 382.59 191.42 C 377.14 173.31 360.91 158.92 342.13 156.22 C 336.52 155.19 330.80 155.91 325.15 155.47 C 320.54 152.04 315.11 149.47 309.29 149.20 C 309.13 143.88 309.22 138.56 309.18 133.24 C 315.51 131.12 317.76 121.90 312.61 117.42 C 307.59 111.89 297.05 115.56 296.60 123.03 M 234.16 303.81 C 234.12 317.09 234.15 330.38 234.15 343.66 C 236.92 343.62 239.69 343.61 242.46 343.63 C 242.72 337.95 242.04 332.20 242.81 326.56 C 243.60 321.76 249.58 320.43 253.39 322.56 C 254.34 324.22 255.34 325.97 255.20 327.97 C 255.33 333.21 255.18 338.45 255.27 343.70 C 258.00 343.58 260.74 343.58 263.47 343.69 C 263.78 338.12 263.54 332.53 263.61 326.95 C 263.61 322.73 262.26 317.80 258.12 315.87 C 253.17 313.03 247.00 314.29 242.45 317.32 C 242.49 312.81 242.47 308.30 242.48 303.80 C 239.70 303.77 236.93 303.76 234.16 303.81 M 199.49 311.76 C 193.37 318.38 192.75 329.51 198.47 336.57 C 204.65 344.95 217.45 346.51 226.14 341.32 C 227.60 340.22 229.72 339.26 229.93 337.22 C 228.39 335.48 226.60 334.00 224.94 332.39 C 220.60 337.64 212.19 338.29 207.02 333.91 C 202.16 329.27 202.09 320.59 206.98 315.94 C 211.77 311.43 220.23 311.85 224.52 316.90 C 226.95 315.81 228.50 313.49 230.64 311.98 C 222.69 303.35 207.50 303.08 199.49 311.76 M 324.58 306.13 C 324.69 318.61 324.67 331.09 324.59 343.57 C 331.70 343.62 338.82 343.66 345.94 343.57 C 349.95 343.30 354.48 342.52 357.12 339.17 C 361.30 334.35 358.70 325.80 352.53 324.07 C 357.16 321.54 358.72 314.91 355.62 310.63 C 352.93 307.04 348.19 306.15 343.96 306.12 C 337.50 306.10 331.04 306.11 324.58 306.13 M 302.63 308.38 C 302.67 310.74 302.65 313.10 302.61 315.46 C 301.16 315.42 299.72 315.37 298.28 315.33 C 298.23 317.52 298.23 319.71 298.27 321.91 C 299.68 321.84 301.10 321.77 302.52 321.71 C 303.23 327.50 301.60 333.63 303.78 339.19 C 306.91 344.85 315.19 345.21 320.34 342.26 C 319.59 340.36 318.86 338.45 318.16 336.55 C 316.03 337.22 312.82 338.20 311.49 335.74 C 310.72 331.11 311.10 326.34 311.27 321.66 C 313.60 321.81 315.95 321.84 318.30 321.74 C 318.28 319.62 318.27 317.50 318.30 315.39 C 315.91 315.37 313.52 315.38 311.13 315.41 C 311.09 313.06 311.06 310.71 311.10 308.37 C 308.27 308.36 305.45 308.34 302.63 308.38 M 399.81 308.39 C 399.80 310.72 399.81 313.04 399.84 315.37 C 398.34 315.39 396.86 315.40 395.37 315.41 C 395.36 317.53 395.36 319.65 395.38 321.77 C 396.84 321.80 398.30 321.83 399.78 321.87 C 399.88 326.28 399.64 330.69 399.92 335.10 C 400.09 338.18 401.58 341.40 404.48 342.79 C 408.59 344.67 413.54 344.36 417.55 342.33 C 416.77 340.42 416.05 338.51 415.34 336.58 C 413.12 337.25 409.87 338.20 408.55 335.57 C 407.86 331.04 408.37 326.42 408.25 321.85 C 410.64 321.81 413.03 321.81 415.42 321.87 C 415.41 319.71 415.42 317.55 415.45 315.40 C 413.03 315.38 410.61 315.36 408.20 315.36 C 408.24 313.04 408.22 310.73 408.30 308.41 C 405.47 308.35 402.64 308.35 399.81 308.39 M 269.25 317.90 C 270.05 319.81 271.08 321.61 271.98 323.48 C 275.69 321.31 280.31 320.18 284.46 321.75 C 286.52 322.51 286.76 324.79 287.10 326.65 C 281.92 326.85 276.23 325.85 271.55 328.59 C 266.69 331.49 266.97 339.57 271.86 342.30 C 276.81 345.14 283.88 344.77 287.78 340.30 C 287.72 341.12 287.58 342.74 287.51 343.56 C 290.16 343.61 292.82 343.63 295.48 343.58 C 295.37 337.40 295.64 331.21 295.37 325.04 C 295.12 320.00 291.24 315.54 286.23 314.76 C 280.54 313.73 273.94 314.29 269.25 317.90 M 373.50 314.85 C 370.96 315.55 368.53 316.79 366.58 318.57 C 361.32 323.73 360.80 332.92 365.58 338.57 C 371.72 345.92 384.57 345.92 390.76 338.62 C 395.72 332.77 395.05 322.97 389.08 318.06 C 384.85 314.42 378.81 313.55 373.50 314.85 Z" />
<path fill="#020e42" opacity="1.00" d=" M 247.70 205.41 C 250.61 192.93 262.18 183.21 274.93 182.26 C 276.70 182.94 278.54 183.67 279.92 185.03 C 284.90 189.75 289.22 195.11 294.23 199.80 C 296.47 201.91 298.24 204.43 300.07 206.90 C 302.30 209.98 305.64 212.01 307.95 215.02 C 309.97 217.66 311.98 220.34 314.56 222.47 C 318.40 225.64 321.13 229.90 325.06 232.97 C 328.95 236.29 330.80 242.07 335.97 243.73 C 316.64 243.72 297.30 243.75 277.97 243.71 C 270.90 243.74 263.80 241.40 258.31 236.91 C 249.02 229.69 244.69 216.78 247.70 205.41 M 274.48 205.70 C 268.30 208.52 269.00 218.58 275.45 220.59 C 280.85 222.95 287.59 217.97 286.62 212.07 C 286.21 206.46 279.35 202.69 274.48 205.70 Z" />
</g>
<g id="#ffffffff">
<path fill="#ffffff" opacity="1.00" d=" M 296.60 123.03 C 297.05 115.56 307.59 111.89 312.61 117.42 C 317.76 121.90 315.51 131.12 309.18 133.24 C 307.12 133.50 305.04 133.58 302.97 133.62 C 299.20 131.47 295.83 127.71 296.60 123.03 Z" />
<path fill="#ffffff" opacity="1.00" d=" M 302.73 149.12 C 304.92 149.08 307.10 149.10 309.29 149.20 C 315.11 149.47 320.54 152.04 325.15 155.47 C 330.80 155.91 336.52 155.19 342.13 156.22 C 360.91 158.92 377.14 173.31 382.59 191.42 C 388.25 193.60 392.57 198.79 393.41 204.84 C 394.93 213.64 394.15 224.75 385.87 230.07 C 384.71 230.34 383.21 230.10 382.44 231.20 C 382.57 232.00 382.83 232.76 383.24 233.50 C 381.16 240.53 377.80 247.32 372.52 252.50 C 362.88 262.37 349.91 267.91 337.12 272.45 C 320.35 277.95 303.55 283.35 286.56 288.12 C 286.43 282.18 286.48 276.25 286.53 270.31 C 283.54 270.20 280.53 270.37 277.56 270.09 C 272.52 267.72 266.82 267.01 262.07 264.01 C 255.88 260.27 250.12 255.57 245.86 249.67 C 242.40 243.82 238.69 237.83 237.81 230.94 C 236.09 223.05 236.75 214.95 236.57 206.94 C 236.50 197.72 238.37 188.26 243.23 180.32 C 247.32 174.53 251.57 168.60 257.68 164.78 C 263.28 160.51 270.08 158.46 276.47 155.74 C 280.10 155.48 283.74 155.73 287.37 155.49 C 291.44 151.53 297.21 149.76 302.73 149.12 M 274.93 182.26 C 262.18 183.21 250.61 192.93 247.70 205.41 C 244.69 216.78 249.02 229.69 258.31 236.91 C 263.80 241.40 270.90 243.74 277.97 243.71 C 297.30 243.75 316.64 243.72 335.97 243.73 C 345.78 243.15 355.21 237.84 360.43 229.47 C 367.31 218.90 366.70 204.14 358.90 194.21 C 353.13 186.60 343.63 181.98 334.07 182.17 C 314.36 182.24 294.64 182.08 274.93 182.26 Z" />
</g>
<g id="#dfeaf5ff">
<path fill="#dfeaf5" opacity="1.00" d=" M 302.97 133.62 C 305.04 133.58 307.12 133.50 309.18 133.24 C 309.22 138.56 309.13 143.88 309.29 149.20 C 307.10 149.10 304.92 149.08 302.73 149.12 C 302.94 143.95 302.64 138.78 302.97 133.62 Z" />
</g>
<g id="#dde9f4ff">
<path fill="#dde9f4" opacity="1.00" d=" M 229.42 191.47 C 235.40 171.23 255.16 155.53 276.47 155.74 C 270.08 158.46 263.28 160.51 257.68 164.78 C 251.57 168.60 247.32 174.53 243.23 180.32 C 238.37 188.26 236.50 197.72 236.57 206.94 C 236.75 214.95 236.09 223.05 237.81 230.94 C 238.69 237.83 242.40 243.82 245.86 249.67 C 250.12 255.57 255.88 260.27 262.07 264.01 C 266.82 267.01 272.52 267.72 277.56 270.09 C 254.79 270.90 233.59 253.34 228.59 231.36 C 223.13 229.13 219.35 223.89 218.54 218.11 C 217.73 212.11 217.64 205.69 220.10 200.04 C 221.87 196.03 225.39 193.05 229.42 191.47 Z" />
</g>
<g id="#081549ff">
<path fill="#081549" opacity="1.00" d=" M 274.93 182.26 C 294.64 182.08 314.36 182.24 334.07 182.17 C 343.63 181.98 353.13 186.60 358.90 194.21 C 366.70 204.14 367.31 218.90 360.43 229.47 C 355.21 237.84 345.78 243.15 335.97 243.73 C 330.80 242.07 328.95 236.29 325.06 232.97 C 321.13 229.90 318.40 225.64 314.56 222.47 C 311.98 220.34 309.97 217.66 307.95 215.02 C 305.64 212.01 302.30 209.98 300.07 206.90 C 298.24 204.43 296.47 201.91 294.23 199.80 C 289.22 195.11 284.90 189.75 279.92 185.03 C 278.54 183.67 276.70 182.94 274.93 182.26 M 329.00 205.78 C 326.73 208.08 324.56 211.18 325.52 214.59 C 326.34 219.48 332.02 222.54 336.57 220.63 C 342.07 218.79 343.74 210.64 339.17 206.96 C 336.51 204.17 332.29 204.30 329.00 205.78 Z" />
</g>
<g id="#02f4ffff">
<path fill="#02f4ff" opacity="1.00" d=" M 274.48 205.70 C 279.35 202.69 286.21 206.46 286.62 212.07 C 287.59 217.97 280.85 222.95 275.45 220.59 C 269.00 218.58 268.30 208.52 274.48 205.70 Z" />
<path fill="#02f4ff" opacity="1.00" d=" M 329.00 205.78 C 332.29 204.30 336.51 204.17 339.17 206.96 C 343.74 210.64 342.07 218.79 336.57 220.63 C 332.02 222.54 326.34 219.48 325.52 214.59 C 324.56 211.18 326.73 208.08 329.00 205.78 Z" />
</g>
<g id="#fefefdff">
<path fill="#fefefd" opacity="1.00" d=" M 234.16 303.81 C 236.93 303.76 239.70 303.77 242.48 303.80 C 242.47 308.30 242.49 312.81 242.45 317.32 C 247.00 314.29 253.17 313.03 258.12 315.87 C 262.26 317.80 263.61 322.73 263.61 326.95 C 263.54 332.53 263.78 338.12 263.47 343.69 C 260.74 343.58 258.00 343.58 255.27 343.70 C 255.18 338.45 255.33 333.21 255.20 327.97 C 255.34 325.97 254.34 324.22 253.39 322.56 C 249.58 320.43 243.60 321.76 242.81 326.56 C 242.04 332.20 242.72 337.95 242.46 343.63 C 239.69 343.61 236.92 343.62 234.15 343.66 C 234.15 330.38 234.12 317.09 234.16 303.81 Z" />
<path fill="#fefefd" opacity="1.00" d=" M 199.49 311.76 C 207.50 303.08 222.69 303.35 230.64 311.98 C 228.50 313.49 226.95 315.81 224.52 316.90 C 220.23 311.85 211.77 311.43 206.98 315.94 C 202.09 320.59 202.16 329.27 207.02 333.91 C 212.19 338.29 220.60 337.64 224.94 332.39 C 226.60 334.00 228.39 335.48 229.93 337.22 C 229.72 339.26 227.60 340.22 226.14 341.32 C 217.45 346.51 204.65 344.95 198.47 336.57 C 192.75 329.51 193.37 318.38 199.49 311.76 Z" />
<path fill="#fefefd" opacity="1.00" d=" M 324.58 306.13 C 331.04 306.11 337.50 306.10 343.96 306.12 C 348.19 306.15 352.93 307.04 355.62 310.63 C 358.72 314.91 357.16 321.54 352.53 324.07 C 358.70 325.80 361.30 334.35 357.12 339.17 C 354.48 342.52 349.95 343.30 345.94 343.57 C 338.82 343.66 331.70 343.62 324.59 343.57 C 324.67 331.09 324.69 318.61 324.58 306.13 M 333.31 312.55 C 333.28 315.53 333.28 318.51 333.40 321.49 C 338.05 321.22 342.89 322.11 347.33 320.28 C 348.68 318.20 348.70 315.66 347.19 313.66 C 342.75 311.93 337.93 312.90 333.31 312.55 M 333.30 327.79 C 333.27 330.90 333.26 334.01 333.42 337.12 C 339.00 336.45 346.04 338.96 350.40 334.33 C 350.23 332.36 350.52 329.57 348.23 328.73 C 343.49 326.92 338.25 328.10 333.30 327.79 Z" />
<path fill="#fefefd" opacity="1.00" d=" M 302.63 308.38 C 305.45 308.34 308.27 308.36 311.10 308.37 C 311.06 310.71 311.09 313.06 311.13 315.41 C 313.52 315.38 315.91 315.37 318.30 315.39 C 318.27 317.50 318.28 319.62 318.30 321.74 C 315.95 321.84 313.60 321.81 311.27 321.66 C 311.10 326.34 310.72 331.11 311.49 335.74 C 312.82 338.20 316.03 337.22 318.16 336.55 C 318.86 338.45 319.59 340.36 320.34 342.26 C 315.19 345.21 306.91 344.85 303.78 339.19 C 301.60 333.63 303.23 327.50 302.52 321.71 C 301.10 321.77 299.68 321.84 298.27 321.91 C 298.23 319.71 298.23 317.52 298.28 315.33 C 299.72 315.37 301.16 315.42 302.61 315.46 C 302.65 313.10 302.67 310.74 302.63 308.38 Z" />
<path fill="#fefefd" opacity="1.00" d=" M 269.25 317.90 C 273.94 314.29 280.54 313.73 286.23 314.76 C 291.24 315.54 295.12 320.00 295.37 325.04 C 295.64 331.21 295.37 337.40 295.48 343.58 C 292.82 343.63 290.16 343.61 287.51 343.56 C 287.58 342.74 287.72 341.12 287.78 340.30 C 283.88 344.77 276.81 345.14 271.86 342.30 C 266.97 339.57 266.69 331.49 271.55 328.59 C 276.23 325.85 281.92 326.85 287.10 326.65 C 286.76 324.79 286.52 322.51 284.46 321.75 C 280.31 320.18 275.69 321.31 271.98 323.48 C 271.08 321.61 270.05 319.81 269.25 317.90 M 276.79 332.60 C 276.63 333.19 276.29 334.35 276.13 334.94 C 276.30 335.51 276.65 336.67 276.83 337.25 C 279.59 338.61 283.28 339.00 285.64 336.65 C 287.17 335.45 286.92 333.31 287.31 331.62 C 283.79 331.62 280.10 331.07 276.79 332.60 Z" />
</g>
<g id="#fefeffff">
<path fill="#fefeff" opacity="1.00" d=" M 399.81 308.39 C 402.64 308.35 405.47 308.35 408.30 308.41 C 408.22 310.73 408.24 313.04 408.20 315.36 C 410.61 315.36 413.03 315.38 415.45 315.40 C 415.42 317.55 415.41 319.71 415.42 321.87 C 413.03 321.81 410.64 321.81 408.25 321.85 C 408.37 326.42 407.86 331.04 408.55 335.57 C 409.87 338.20 413.12 337.25 415.34 336.58 C 416.05 338.51 416.77 340.42 417.55 342.33 C 413.54 344.36 408.59 344.67 404.48 342.79 C 401.58 341.40 400.09 338.18 399.92 335.10 C 399.64 330.69 399.88 326.28 399.78 321.87 C 398.30 321.83 396.84 321.80 395.38 321.77 C 395.36 319.65 395.36 317.53 395.37 315.41 C 396.86 315.40 398.34 315.39 399.84 315.37 C 399.81 313.04 399.80 310.72 399.81 308.39 Z" />
</g>
<g id="#010d43ff">
<path fill="#010d43" opacity="1.00" d=" M 333.31 312.55 C 337.93 312.90 342.75 311.93 347.19 313.66 C 348.70 315.66 348.68 318.20 347.33 320.28 C 342.89 322.11 338.05 321.22 333.40 321.49 C 333.28 318.51 333.28 315.53 333.31 312.55 Z" />
</g>
<g id="#fefefcff">
<path fill="#fefefc" opacity="1.00" d=" M 373.50 314.85 C 378.81 313.55 384.85 314.42 389.08 318.06 C 395.05 322.97 395.72 332.77 390.76 338.62 C 384.57 345.92 371.72 345.92 365.58 338.57 C 360.80 332.92 361.32 323.73 366.58 318.57 C 368.53 316.79 370.96 315.55 373.50 314.85 M 375.49 321.65 C 369.11 323.89 369.25 334.90 375.81 336.82 C 380.75 338.69 386.15 334.14 385.54 328.99 C 386.03 323.75 380.34 319.56 375.49 321.65 Z" />
</g>
<g id="#020d41ff">
<path fill="#020d41" opacity="1.00" d=" M 375.49 321.65 C 380.34 319.56 386.03 323.75 385.54 328.99 C 386.15 334.14 380.75 338.69 375.81 336.82 C 369.25 334.90 369.11 323.89 375.49 321.65 Z" />
</g>
<g id="#030f43ff">
<path fill="#030f43" opacity="1.00" d=" M 333.30 327.79 C 338.25 328.10 343.49 326.92 348.23 328.73 C 350.52 329.57 350.23 332.36 350.40 334.33 C 346.04 338.96 339.00 336.45 333.42 337.12 C 333.26 334.01 333.27 330.90 333.30 327.79 Z" />
</g>
<g id="#000c43ff">
<path fill="#000c43" opacity="1.00" d=" M 276.79 332.60 C 280.10 331.07 283.79 331.62 287.31 331.62 C 286.92 333.31 287.17 335.45 285.64 336.65 C 283.28 339.00 279.59 338.61 276.83 337.25 C 276.65 336.67 276.30 335.51 276.13 334.94 C 276.29 334.35 276.63 333.19 276.79 332.60 Z" />
</g>
</svg>
