<svg width="21" height="16" viewBox="0 0 21 16" fill="none" xmlns="http://www.w3.org/2000/svg">
<g id="Frame">
<g clip-path="url(#clip0_1_6218)">
<path id="Vector" d="M6.32812 1.5C6.32812 0.671875 7 0 7.82812 0H12.8281C13.6562 0 14.3281 0.671875 14.3281 1.5V16H11.8281V13.5C11.8281 12.6719 11.1562 12 10.3281 12C9.5 12 8.82812 12.6719 8.82812 13.5V16H6.32812V1.5ZM1.82812 3H5.32812V16H1.82812C1 16 0.328125 15.3281 0.328125 14.5V10H2.82812C3.10313 10 3.32812 9.775 3.32812 9.5C3.32812 9.225 3.10313 9 2.82812 9H0.328125V7H2.82812C3.10313 7 3.32812 6.775 3.32812 6.5C3.32812 6.225 3.10313 6 2.82812 6H0.328125V4.5C0.328125 3.67188 1 3 1.82812 3ZM18.8281 3C19.6562 3 20.3281 3.67188 20.3281 4.5V6H17.8281C17.5531 6 17.3281 6.225 17.3281 6.5C17.3281 6.775 17.5531 7 17.8281 7H20.3281V9H17.8281C17.5531 9 17.3281 9.225 17.3281 9.5C17.3281 9.775 17.5531 10 17.8281 10H20.3281V14.5C20.3281 15.3281 19.6562 16 18.8281 16H15.3281V3H18.8281ZM10.0781 2C9.80313 2 9.57812 2.225 9.57812 2.5V3.25H8.82812C8.55313 3.25 8.32812 3.475 8.32812 3.75V4.25C8.32812 4.525 8.55313 4.75 8.82812 4.75H9.57812V5.5C9.57812 5.775 9.80313 6 10.0781 6H10.5781C10.8531 6 11.0781 5.775 11.0781 5.5V4.75H11.8281C12.1031 4.75 12.3281 4.525 12.3281 4.25V3.75C12.3281 3.475 12.1031 3.25 11.8281 3.25H11.0781V2.5C11.0781 2.225 10.8531 2 10.5781 2H10.0781Z" fill="#3674B5"/>
</g>
</g>
<defs>
<clipPath id="clip0_1_6218">
<path d="M0.328125 0H20.3281V16H0.328125V0Z" fill="white"/>
</clipPath>
</defs>
</svg>
