<svg width="43" height="59" viewBox="0 0 43 59" fill="none" xmlns="http://www.w3.org/2000/svg">
<g id="logo1 1" clip-path="url(#clip0_1_10974)">
<g id="#2563ebff">
<path id="Vector" d="M5.7357 16.5134C9.35933 11.6028 17.1957 11.9876 20.8471 16.6972C23.337 13.7164 27.4108 12.1714 31.1345 13.3316C34.3246 13.9978 36.631 16.7833 37.8371 19.7698C38.654 22.0442 38.3373 24.5426 37.8926 26.8686C34.7025 26.8456 31.5124 26.9203 28.3223 26.8169C27.3052 25.2318 26.9995 21.6881 24.443 22.5554C22.8146 24.5885 21.7475 27.1615 20.9249 29.6599C19.9857 26.8973 18.6629 24.2956 17.5847 21.5905C17.2902 20.3901 15.684 19.5573 14.8003 20.6486C13.6999 22.5324 13.0385 24.6517 12.2493 26.6906C9.46493 27.0754 6.65272 26.748 3.85719 26.9146C2.80679 23.3881 3.26252 19.3046 5.7357 16.5134Z" fill="#3674B5"/>
<path id="Vector_2" d="M15.9676 25.9553C17.0902 28.6547 18.274 31.3253 19.4134 34.0247C19.7524 34.243 20.4249 34.6737 20.7639 34.8862C21.4642 34.4727 22.3645 34.2085 22.6591 33.3355C23.5428 31.5264 24.5709 29.7804 25.249 27.8679C25.9437 28.9821 26.8774 30.2513 28.3002 30.2571C30.9401 30.3662 33.5855 30.3949 36.2199 30.1709C31.8237 34.4038 27.422 38.6481 23.0203 42.8752C21.8643 44.0698 19.858 44.0985 18.6964 42.9039C14.3281 38.6309 9.93191 34.3751 5.47462 30.1996C7.9089 30.3203 10.371 30.4753 12.7997 30.1537C14.6282 29.5794 15.4896 27.707 15.9676 25.9553Z" fill="#3674B5"/>
</g>
</g>
<defs>
<clipPath id="clip0_1_10974">
<rect width="42.2386" height="59" fill="white"/>
</clipPath>
</defs>
</svg>
