<svg width="27" height="27" viewBox="0 0 27 27" fill="none" xmlns="http://www.w3.org/2000/svg">
<g id="Frame">
<path id="Vector" fill-rule="evenodd" clip-rule="evenodd" d="M7.06047 9.73347C7.25387 9.5474 7.51323 9.44572 7.78156 9.45078C8.04989 9.45585 8.30523 9.56723 8.49147 9.76047L13.5 15.0768L18.5085 9.76047C18.5995 9.6601 18.7098 9.57903 18.8327 9.52206C18.9557 9.46509 19.0888 9.43338 19.2242 9.4288C19.3596 9.42422 19.4946 9.44688 19.6211 9.49542C19.7476 9.54396 19.8631 9.61741 19.9607 9.7114C20.0583 9.80539 20.1361 9.91802 20.1894 10.0426C20.2426 10.1672 20.2704 10.3012 20.2709 10.4367C20.2714 10.5722 20.2448 10.7065 20.1925 10.8315C20.1402 10.9565 20.0633 11.0697 19.9665 11.1645L14.229 17.2395C14.1345 17.3375 14.0213 17.4154 13.896 17.4686C13.7708 17.5219 13.6361 17.5493 13.5 17.5493C13.3639 17.5493 13.2292 17.5219 13.1039 17.4686C12.9787 17.4154 12.8654 17.3375 12.771 17.2395L7.03347 11.1645C6.8474 10.9711 6.74573 10.7117 6.75079 10.4434C6.75585 10.1751 6.86724 9.91971 7.06047 9.73347Z" fill="black"/>
</g>
</svg>
