<svg width="21" height="16" viewBox="0 0 21 16" fill="none" xmlns="http://www.w3.org/2000/svg">
<g id="Frame">
<g clip-path="url(#clip0_1_5119)">
<path id="Vector" d="M4.82812 0C5.49117 0 6.12705 0.263392 6.59589 0.732233C7.06473 1.20107 7.32812 1.83696 7.32812 2.5C7.32812 3.16304 7.06473 3.79893 6.59589 4.26777C6.12705 4.73661 5.49117 5 4.82812 5C4.16508 5 3.5292 4.73661 3.06036 4.26777C2.59152 3.79893 2.32812 3.16304 2.32812 2.5C2.32812 1.83696 2.59152 1.20107 3.06036 0.732233C3.5292 0.263392 4.16508 0 4.82812 0ZM16.3281 0C16.9912 0 17.6271 0.263392 18.0959 0.732233C18.5647 1.20107 18.8281 1.83696 18.8281 2.5C18.8281 3.16304 18.5647 3.79893 18.0959 4.26777C17.6271 4.73661 16.9912 5 16.3281 5C15.6651 5 15.0292 4.73661 14.5604 4.26777C14.0915 3.79893 13.8281 3.16304 13.8281 2.5C13.8281 1.83696 14.0915 1.20107 14.5604 0.732233C15.0292 0.263392 15.6651 0 16.3281 0ZM0.328125 9.33438C0.328125 7.49375 1.82187 6 3.6625 6H4.99687C5.49375 6 5.96562 6.10938 6.39062 6.30312C6.35 6.52812 6.33125 6.7625 6.33125 7C6.33125 8.19375 6.85625 9.26562 7.68437 10C7.67812 10 7.67188 10 7.6625 10H0.99375C0.628125 10 0.328125 9.7 0.328125 9.33438ZM12.9937 10C12.9875 10 12.9812 10 12.9719 10C13.8031 9.26562 14.325 8.19375 14.325 7C14.325 6.7625 14.3031 6.53125 14.2656 6.30312C14.6906 6.10625 15.1625 6 15.6594 6H16.9937C18.8344 6 20.3281 7.49375 20.3281 9.33438C20.3281 9.70312 20.0281 10 19.6625 10H12.9937ZM7.32812 7C7.32812 6.20435 7.6442 5.44129 8.2068 4.87868C8.76941 4.31607 9.53248 4 10.3281 4C11.1238 4 11.8868 4.31607 12.4494 4.87868C13.0121 5.44129 13.3281 6.20435 13.3281 7C13.3281 7.79565 13.0121 8.55871 12.4494 9.12132C11.8868 9.68393 11.1238 10 10.3281 10C9.53248 10 8.76941 9.68393 8.2068 9.12132C7.6442 8.55871 7.32812 7.79565 7.32812 7ZM4.32812 15.1656C4.32812 12.8656 6.19375 11 8.49375 11H12.1625C14.4625 11 16.3281 12.8656 16.3281 15.1656C16.3281 15.625 15.9562 16 15.4937 16H5.1625C4.70312 16 4.32812 15.6281 4.32812 15.1656Z" fill="#306BEC"/>
</g>
</g>
<defs>
<clipPath id="clip0_1_5119">
<path d="M0.328125 0H20.3281V16H0.328125V0Z" fill="white"/>
</clipPath>
</defs>
</svg>
