<svg width="16" height="16" viewBox="0 0 16 16" fill="none" xmlns="http://www.w3.org/2000/svg">
<g id="Frame">
<g clip-path="url(#clip0_1_5586)">
<path id="Vector" d="M5.15312 0.768966C4.9125 0.187716 4.27812 -0.121659 3.67188 0.0439663L0.921875 0.793966C0.378125 0.943966 0 1.43772 0 2.00022C0 9.73147 6.26875 16.0002 14 16.0002C14.5625 16.0002 15.0563 15.6221 15.2063 15.0783L15.9563 12.3283C16.1219 11.7221 15.8125 11.0877 15.2312 10.8471L12.2312 9.59709C11.7219 9.38459 11.1313 9.53147 10.7844 9.95959L9.52188 11.5002C7.32188 10.4596 5.54063 8.67834 4.5 6.47834L6.04063 5.21897C6.46875 4.86897 6.61562 4.28147 6.40312 3.77209L5.15312 0.772091V0.768966Z" fill="black"/>
</g>
</g>
<defs>
<clipPath id="clip0_1_5586">
<path d="M0 0H16V16H0V0Z" fill="white"/>
</clipPath>
</defs>
</svg>
