<svg width="18" height="16" viewBox="0 0 18 16" fill="none" xmlns="http://www.w3.org/2000/svg">
<g id="Frame">
<g clip-path="url(#clip0_1_6198)">
<path id="Vector" d="M9.90312 0.5625C9.7375 0.21875 9.3875 0 9.00313 0C8.61875 0 8.27187 0.21875 8.10312 0.5625L6.09375 4.69688L1.60625 5.35938C1.23125 5.41563 0.91875 5.67812 0.803125 6.0375C0.6875 6.39687 0.78125 6.79375 1.05 7.05937L4.30625 10.2812L3.5375 14.8344C3.475 15.2094 3.63125 15.5906 3.94062 15.8125C4.25 16.0344 4.65937 16.0625 4.99687 15.8844L9.00625 13.7437L13.0156 15.8844C13.3531 16.0625 13.7625 16.0375 14.0719 15.8125C14.3812 15.5875 14.5375 15.2094 14.475 14.8344L13.7031 10.2812L16.9594 7.05937C17.2281 6.79375 17.325 6.39687 17.2062 6.0375C17.0875 5.67812 16.7781 5.41563 16.4031 5.35938L11.9125 4.69688L9.90312 0.5625Z" fill="#3674B5"/>
</g>
</g>
<defs>
<clipPath id="clip0_1_6198">
<path d="M0 0H18V16H0V0Z" fill="white"/>
</clipPath>
</defs>
</svg>
