<svg width="16" height="18" viewBox="0 0 16 18" fill="none" xmlns="http://www.w3.org/2000/svg">
<g id="Frame">
<g clip-path="url(#clip0_1_5684)">
<path id="Vector" d="M5.34375 0.84375C5.34375 0.376172 4.96758 0 4.5 0C4.03242 0 3.65625 0.376172 3.65625 0.84375V2.25H2.25C1.00898 2.25 0 3.25898 0 4.5V5.0625V6.75V15.75C0 16.991 1.00898 18 2.25 18H13.5C14.741 18 15.75 16.991 15.75 15.75V6.75V5.0625V4.5C15.75 3.25898 14.741 2.25 13.5 2.25H12.0938V0.84375C12.0938 0.376172 11.7176 0 11.25 0C10.7824 0 10.4062 0.376172 10.4062 0.84375V2.25H5.34375V0.84375ZM1.6875 6.75H14.0625V15.75C14.0625 16.0594 13.8094 16.3125 13.5 16.3125H2.25C1.94062 16.3125 1.6875 16.0594 1.6875 15.75V6.75Z" fill="white"/>
</g>
</g>
<defs>
<clipPath id="clip0_1_5684">
<path d="M0 0H15.75V18H0V0Z" fill="white"/>
</clipPath>
</defs>
</svg>
